<svg width="200" height="150" viewBox="0 0 200 150" fill="none" xmlns="http://www.w3.org/2000/svg">
<path d="M188.084 136.083C187.963 140.605 187.206 145.087 185.834 149.397C185.804 149.497 185.77 149.596 185.737 149.696H177.341C177.35 149.606 177.359 149.506 177.368 149.397C177.927 142.961 174.729 104.256 170.87 97.5569C171.208 98.1003 188.736 115.633 188.084 136.083Z" fill="#F0F0F0"/>
<path d="M187.454 149.397C187.384 149.497 187.311 149.598 187.236 149.696H180.937C180.985 149.611 181.04 149.511 181.104 149.397C182.145 147.519 185.225 141.904 188.084 136.083C191.155 129.828 193.975 123.335 193.738 120.985C193.811 121.515 195.937 137.672 187.454 149.397Z" fill="#F0F0F0"/>
<path d="M158.514 122.025H0V0H158.514V122.025Z" fill="white"/>
<path d="M158.514 122.025H0V0H158.514V122.025ZM2.34204 119.683H156.172V2.34203H2.34204V119.683Z" fill="#E5E5E5"/>
<path d="M41.4856 91.9833H29.4841C29.1591 91.9829 28.8476 91.8537 28.6178 91.6239C28.388 91.3941 28.2587 91.0826 28.2583 90.7576V74.2135C28.2587 73.8885 28.388 73.577 28.6178 73.3472C28.8476 73.1174 29.1591 72.9882 29.4841 72.9878H41.4856C41.8105 72.9882 42.1221 73.1174 42.3519 73.3472C42.5817 73.577 42.711 73.8885 42.7114 74.2135V90.7576C42.711 91.0826 42.5817 91.3941 42.3519 91.6239C42.1221 91.8537 41.8105 91.9829 41.4856 91.9833Z" fill="#E6E6E6"/>
<path d="M63.3718 91.9833H51.3704C51.0454 91.983 50.7338 91.8537 50.504 91.6239C50.2742 91.3941 50.1449 91.0826 50.1445 90.7576V58.5216C50.1449 58.1966 50.2742 57.8851 50.504 57.6553C50.7338 57.4255 51.0454 57.2963 51.3704 57.2959H63.3718C63.6968 57.2963 64.0084 57.4255 64.2382 57.6553C64.468 57.8851 64.5972 58.1966 64.5976 58.5216V90.7576C64.5972 91.0826 64.468 91.3941 64.2382 91.6239C64.0084 91.8537 63.6968 91.983 63.3718 91.9833Z" fill="#E6E6E6"/>
<path d="M85.258 91.9833H73.2566C72.9316 91.9829 72.62 91.8537 72.3902 91.6239C72.1604 91.3941 72.0311 91.0826 72.0308 90.7576V74.2135C72.0311 73.8885 72.1604 73.577 72.3902 73.3472C72.62 73.1174 72.9316 72.9882 73.2566 72.9878H85.258C85.583 72.9882 85.8946 73.1174 86.1244 73.3472C86.3542 73.577 86.4835 73.8885 86.4839 74.2135V90.7576C86.4835 91.0826 86.3542 91.3941 86.1244 91.6239C85.8946 91.8537 85.583 91.9829 85.258 91.9833Z" fill="#E6E6E6"/>
<path d="M107.144 91.9832H95.1423C94.8248 91.99 94.5174 91.8707 94.2876 91.6514C94.0579 91.432 93.9244 91.1306 93.9165 90.813V52.2718C93.9244 51.9542 94.0579 51.6528 94.2876 51.4334C94.5174 51.2141 94.8248 51.0948 95.1423 51.1016H107.144C107.461 51.0948 107.769 51.2141 107.998 51.4334C108.228 51.6528 108.362 51.9542 108.37 52.2718V90.813C108.362 91.1306 108.228 91.432 107.998 91.6514C107.769 91.8707 107.461 91.99 107.144 91.9832Z" fill="#E6E6E6"/>
<path d="M129.03 91.9833H117.029C116.704 91.983 116.392 91.8537 116.162 91.6239C115.932 91.3941 115.803 91.0826 115.803 90.7576V41.1779C115.803 40.8529 115.932 40.5413 116.162 40.3115C116.392 40.0818 116.704 39.9525 117.029 39.9521H129.03C129.355 39.9525 129.667 40.0818 129.896 40.3115C130.126 40.5413 130.255 40.8529 130.256 41.1779V90.7576C130.255 91.0826 130.126 91.3941 129.896 91.6239C129.667 91.8537 129.355 91.983 129.03 91.9833Z" fill="#F2F2F2"/>
<path d="M35.485 68.0325C36.8534 68.0325 37.9627 66.9232 37.9627 65.5548C37.9627 64.1864 36.8534 63.0771 35.485 63.0771C34.1166 63.0771 33.0073 64.1864 33.0073 65.5548C33.0073 66.9232 34.1166 68.0325 35.485 68.0325Z" fill="#3F3D56"/>
<path d="M57.3712 51.9275C58.7396 51.9275 59.8489 50.8182 59.8489 49.4498C59.8489 48.0815 58.7396 46.9722 57.3712 46.9722C56.0028 46.9722 54.8936 48.0815 54.8936 49.4498C54.8936 50.8182 56.0028 51.9275 57.3712 51.9275Z" fill="#3F3D56"/>
<path d="M79.257 68.0325C80.6253 68.0325 81.7346 66.9232 81.7346 65.5548C81.7346 64.1864 80.6253 63.0771 79.257 63.0771C77.8886 63.0771 76.7793 64.1864 76.7793 65.5548C76.7793 66.9232 77.8886 68.0325 79.257 68.0325Z" fill="#3F3D56"/>
<path d="M101.143 44.0816C102.512 44.0816 103.621 42.9723 103.621 41.6039C103.621 40.2355 102.512 39.1262 101.143 39.1262C99.7748 39.1262 98.6655 40.2355 98.6655 41.6039C98.6655 42.9723 99.7748 44.0816 101.143 44.0816Z" fill="#3F3D56"/>
<path d="M123.029 34.9966C124.398 34.9966 125.507 33.8873 125.507 32.5189C125.507 31.1506 124.398 30.0413 123.029 30.0413C121.661 30.0413 120.552 31.1506 120.552 32.5189C120.552 33.8873 121.661 34.9966 123.029 34.9966Z" fill="#3F3D56"/>
<path d="M79.3094 66.1096L57.3709 49.6777L35.7325 65.8851L35.2373 65.2241L57.3709 48.6456L79.2048 64.9996L100.902 41.2559L100.989 41.2206L122.875 32.4023L123.184 33.1685L101.385 41.9515L79.3094 66.1096Z" fill="#3F3D56"/>
<path d="M153.645 145.954L149.917 145.954L148.143 131.575L153.645 131.575L153.645 145.954Z" fill="#FFB6B6"/>
<path d="M154.595 149.568L142.575 149.567V149.415C142.575 148.174 143.068 146.984 143.945 146.107C144.823 145.23 146.013 144.737 147.253 144.737H147.254L154.595 144.737L154.595 149.568Z" fill="#2F2E41"/>
<path d="M140.321 85.0925L142.438 118.814L149.544 142.55L155.049 142.949L152.285 114.021L153.497 94.8094C153.497 94.8094 159.243 90.526 156.066 85.3698L140.321 85.0925Z" fill="#2F2E41"/>
<path d="M156.077 145.954L152.349 145.954L150.576 131.575L156.078 131.575L156.077 145.954Z" fill="#FFB6B6"/>
<path d="M157.028 149.568L145.007 149.567V149.415C145.007 148.174 145.5 146.984 146.378 146.107C147.255 145.23 148.445 144.737 149.686 144.737H149.686L157.028 144.737L157.028 149.568Z" fill="#2F2E41"/>
<path d="M142.754 85.0925L144.87 118.814L151.976 142.55L157.482 142.949L154.717 114.021L155.929 94.8094C155.929 94.8094 161.676 90.526 158.499 85.3698L142.754 85.0925Z" fill="#2F2E41"/>
<path d="M154.227 90.3145C147.879 90.3145 140.407 86.4348 139.974 86.2069L139.854 86.1435L154.424 48.9725L161.64 45.5635C162.195 45.301 162.811 45.1916 163.423 45.2465C164.035 45.3014 164.622 45.5186 165.122 45.8758C165.622 46.233 166.017 46.7171 166.268 47.2783C166.518 47.8394 166.614 48.4573 166.546 49.068L163.683 74.7569L160.694 88.0621L160.662 88.0933C159.012 89.7232 156.705 90.3145 154.227 90.3145Z" fill="#3F3D56"/>
<path d="M130.944 65.7078C131.322 65.4684 131.747 65.3147 132.191 65.2575C132.634 65.2004 133.085 65.2411 133.51 65.3768C133.936 65.5126 134.327 65.7401 134.656 66.0433C134.984 66.3465 135.242 66.718 135.412 67.1317L146.262 66.539L143.415 71.4155L133.548 71.2307C132.834 71.4692 132.058 71.4375 131.365 71.1417C130.673 70.8459 130.114 70.3065 129.793 69.6257C129.472 68.9449 129.412 68.1701 129.624 67.448C129.836 66.7259 130.306 66.1067 130.944 65.7078Z" fill="#FFB6B6"/>
<path d="M152.356 73.3414L141.483 73.0639L141.623 65.8715L146.765 64.2349L155.199 52.4061C155.621 51.8138 156.158 51.3122 156.777 50.9309C157.397 50.5496 158.086 50.2964 158.805 50.1863C159.524 50.0761 160.258 50.1113 160.963 50.2896C161.668 50.468 162.331 50.786 162.911 51.2247C163.491 51.6635 163.977 52.2141 164.341 52.8441C164.705 53.474 164.939 54.1705 165.029 54.8923C165.118 55.6142 165.063 56.3467 164.865 57.0466C164.666 57.7466 164.33 58.3996 163.875 58.9673L152.356 73.3414Z" fill="#3F3D56"/>
<path d="M158.652 44.1938C162.642 44.1938 165.877 40.9591 165.877 36.9688C165.877 32.9786 162.642 29.7439 158.652 29.7439C154.661 29.7439 151.427 32.9786 151.427 36.9688C151.427 40.9591 154.661 44.1938 158.652 44.1938Z" fill="#FFB6B6"/>
<path d="M149.511 30.9481C150.241 30.2005 151.188 29.7033 152.218 29.5281C153.221 29.3122 154.322 29.2453 155.125 28.6158C156.037 27.8891 156.438 26.5086 157.557 26.2014C158.044 26.1036 158.549 26.1436 159.014 26.317C160.802 26.8564 162.39 27.9147 163.575 29.3578C163.855 29.7713 164.211 30.1274 164.624 30.4069C164.872 30.5116 165.113 30.6293 165.348 30.7596C165.606 30.9629 165.808 31.2274 165.938 31.5289C166.745 33.1577 166.931 35.0245 166.461 36.7804C166.181 37.8173 165.676 38.7782 165.378 39.8212C165.08 40.8642 163.702 42.8483 163.38 42.3557C163.057 41.8631 162.644 41.4039 162.468 40.8353C162.124 39.7168 162.434 38.5912 161.559 37.8143C161.018 37.3338 160.039 37.0115 159.671 37.6318C159.525 37.872 159.534 38.1761 159.409 38.4255C159.163 38.912 158.451 39.0093 157.98 38.7295C157.526 38.4159 157.207 37.9425 157.086 37.4038C156.378 35.0076 155.17 33.4994 152.607 34.5241C151.652 34.9073 150.527 35.1657 149.609 34.5089C148.399 33.6453 148.645 31.9334 149.511 30.9481Z" fill="#2F2E41"/>
<path d="M133.287 95.9362H121.286C120.961 95.9359 120.649 95.8066 120.42 95.5768C120.19 95.347 120.06 95.0355 120.06 94.7105V45.1308C120.06 44.8058 120.19 44.4942 120.42 44.2644C120.649 44.0346 120.961 43.9054 121.286 43.905H133.287C133.612 43.9054 133.924 44.0346 134.154 44.2644C134.384 44.4942 134.513 44.8058 134.513 45.1308V94.7105C134.513 95.0355 134.384 95.347 134.154 95.5768C133.924 95.8066 133.612 95.9359 133.287 95.9362Z" fill="#3AD29F"/>
<path d="M130.64 69.9651C131.018 69.7257 131.443 69.5721 131.886 69.5149C132.33 69.4577 132.78 69.4984 133.206 69.6342C133.632 69.7699 134.023 69.9974 134.352 70.3006C134.68 70.6038 134.938 70.9753 135.107 71.389L145.957 70.7963L143.111 75.6728L133.244 75.4881C132.53 75.7265 131.753 75.6948 131.061 75.399C130.369 75.1032 129.81 74.5638 129.489 73.883C129.168 73.2022 129.108 72.4274 129.32 71.7053C129.532 70.9832 130.002 70.364 130.64 69.9651H130.64Z" fill="#FFB6B6"/>
<path d="M152.052 77.5986L141.179 77.3211L141.319 70.1286L146.461 68.492L154.894 56.6632C155.317 56.0709 155.853 55.5693 156.473 55.188C157.092 54.8067 157.782 54.5535 158.501 54.4434C159.22 54.3332 159.954 54.3684 160.659 54.5467C161.364 54.7251 162.027 55.043 162.607 55.4818C163.187 55.9205 163.673 56.4712 164.037 57.1011C164.401 57.7311 164.634 58.4276 164.724 59.1494C164.814 59.8713 164.758 60.6038 164.56 61.3037C164.362 62.0036 164.026 62.6567 163.571 63.2244L152.052 77.5986Z" fill="#3F3D56"/>
<path d="M199.557 150H83.7024C83.6624 150 83.6228 149.992 83.5858 149.977C83.5488 149.962 83.5152 149.94 83.4868 149.911C83.4585 149.883 83.436 149.849 83.4207 149.813C83.4053 149.776 83.3975 149.736 83.3975 149.696C83.3975 149.656 83.4053 149.616 83.4207 149.579C83.436 149.542 83.4585 149.509 83.4868 149.481C83.5152 149.452 83.5488 149.43 83.5858 149.415C83.6228 149.4 83.6624 149.392 83.7024 149.392H199.557C199.597 149.392 199.637 149.4 199.674 149.415C199.711 149.43 199.744 149.452 199.772 149.481C199.801 149.509 199.823 149.542 199.839 149.579C199.854 149.616 199.862 149.656 199.862 149.696C199.862 149.736 199.854 149.776 199.839 149.813C199.823 149.849 199.801 149.883 199.772 149.911C199.744 149.94 199.711 149.962 199.674 149.977C199.637 149.992 199.597 150 199.557 150Z" fill="#CACACA"/>
</svg>
