<svg width="256" height="157" viewBox="0 0 256 157" fill="none" xmlns="http://www.w3.org/2000/svg">
<path d="M31.944 10.624C31.944 9.568 32.76 8.944 33.832 8.944C34.92 8.944 35.72 9.568 35.72 10.624C35.72 11.664 34.92 12.304 33.832 12.304C32.76 12.304 31.944 11.664 31.944 10.624ZM37.768 10.624C37.768 8.656 36.088 7.232 33.832 7.232C31.592 7.232 29.896 8.656 29.896 10.624C29.896 12.592 31.592 14.016 33.832 14.016C36.088 14.016 37.768 12.592 37.768 10.624ZM33.432 18.704H36.44V14.864H31.368V16.416H34.408V17.264H31.4V21.216H32.376C34.744 21.216 36.008 21.184 37.48 20.896L37.272 19.36C36.088 19.568 35.08 19.632 33.432 19.648V18.704ZM37 16.544H39.832V21.344H41.912V14.864H37V16.544ZM39.8 6.64V14.24H41.912V6.64H39.8ZM48.5887 16.272C47.5167 16.272 46.7967 15.104 46.7967 12.912C46.7967 10.736 47.5167 9.568 48.5887 9.568C49.6767 9.568 50.3967 10.736 50.3967 12.912C50.3967 15.104 49.6767 16.272 48.5887 16.272ZM54.8127 6.624V11.936H52.3488C52.0608 9.28 50.5728 7.664 48.5887 7.664C46.3967 7.664 44.7807 9.68 44.7807 12.912C44.7807 16.16 46.3967 18.192 48.5887 18.192C50.6367 18.192 52.1407 16.464 52.3647 13.648H54.8127V21.408H56.9248V6.624H54.8127ZM60.8335 13.936C63.4095 13.584 65.2175 12.48 66.0975 10.976C66.9775 12.48 68.7855 13.584 71.3615 13.936L72.1135 12.288C69.1215 11.92 67.5695 10.48 67.3615 9.072H71.5375V7.392H60.6095V9.072H64.8495C64.6415 10.48 63.0735 11.92 60.0655 12.288L60.8335 13.936ZM72.7535 14.784H59.4415V16.464H64.9935V21.408H67.1055V16.464H72.7535V14.784ZM78.9983 7.92H76.9663V10.4C76.9663 12.912 76.1823 15.552 74.0223 16.864L75.2863 18.448C76.6143 17.648 77.4783 16.24 77.9903 14.608C78.4543 16.096 79.2383 17.344 80.4863 18.112L81.6383 16.48C79.6383 15.152 78.9983 12.704 78.9983 10.32V7.92ZM81.9423 11.616H80.1023V13.328H81.9423V20.72H83.9103V6.88H81.9423V11.616ZM84.9343 6.64V21.376H86.9343V6.64H84.9343ZM94.203 15.136C94.715 15.232 95.243 15.28 95.819 15.28C96.395 15.28 96.939 15.232 97.451 15.136V17.952H94.203V15.136ZM95.819 9.024C97.867 9.024 99.243 9.856 99.243 11.328C99.243 12.784 97.867 13.632 95.819 13.632C93.771 13.632 92.411 12.784 92.411 11.328C92.411 9.856 93.771 9.024 95.819 9.024ZM99.547 17.952V14.352C100.651 13.664 101.323 12.608 101.323 11.328C101.323 8.912 99.003 7.36 95.819 7.36C92.651 7.36 90.331 8.912 90.331 11.328C90.315 12.608 90.987 13.664 92.107 14.352V17.952H89.163V19.664H102.507V17.952H99.547Z" fill="#3AD29F"/>
<path d="M23.0387 22.7478H2.96124C2.5742 22.7478 2.21657 22.5413 2.02306 22.2061C1.82955 21.8709 1.82955 21.458 2.02307 21.1228L12.0612 3.78946C12.2549 3.45483 12.6122 3.24878 12.9989 3.24878C13.3855 3.24878 13.7428 3.45483 13.9365 3.78946L23.9747 21.1228C24.1681 21.4578 24.1682 21.8705 23.9749 22.2056C23.7817 22.5408 23.4244 22.7474 23.0376 22.7478H23.0387ZM11.9172 17.3311V19.4978H12.9279H12.9983H13.0687H14.0817V17.3311H11.9172ZM11.9172 9.74779V15.1645H14.0838V9.74779H11.9172Z" fill="#14CC9E"/>
<path d="M83.7227 140.832H82.1267V142.44C82.1267 144.492 81.2867 146.604 79.4267 147.48L80.3747 148.764C81.6227 148.152 82.4507 146.988 82.9307 145.584C83.3867 146.904 84.1667 147.972 85.3187 148.56L86.2787 147.312C84.5027 146.436 83.7227 144.432 83.7227 142.44V140.832ZM89.9147 144.228H88.3067V139.98H86.7227V151.032H88.3067V145.548H89.9147V144.228ZM100.024 139.98H98.4277V147.972H100.024V139.98ZM97.7317 145.392C95.9437 144.804 95.1397 143.448 95.1397 142.152V142.02H97.3237V140.772H91.3117V142.02H93.5317V142.152C93.5317 143.532 92.7277 144.984 90.8917 145.56L91.6957 146.796C92.9797 146.376 93.8677 145.524 94.3597 144.444C94.8637 145.428 95.7037 146.22 96.9277 146.604L97.7317 145.392ZM94.2517 149.58V147.252H92.6677V150.84H100.3V149.58H94.2517ZM107.025 141.552C108.513 141.552 109.401 141.912 109.401 142.584C109.401 143.268 108.513 143.604 107.025 143.604C105.549 143.604 104.661 143.268 104.661 142.584C104.661 141.912 105.549 141.552 107.025 141.552ZM107.025 144.864C109.437 144.864 111.033 143.988 111.033 142.584C111.033 141.18 109.437 140.304 107.025 140.304C104.625 140.304 103.029 141.18 103.029 142.584C103.029 143.988 104.625 144.864 107.025 144.864ZM104.829 147.624H103.245V150.84H110.901V149.58H104.829V147.624ZM102.033 145.62V146.88H112.017V145.62H102.033ZM122.336 142.236V143.496H124.016V145.596H125.6V139.98H124.016V142.236H122.336ZM122.948 144.372C121.28 143.892 120.512 142.764 120.464 141.648H122.624V140.388H116.684V141.648H118.856C118.796 142.788 117.98 144.072 116.264 144.6L117.008 145.836C118.292 145.464 119.18 144.624 119.672 143.628C120.164 144.54 120.992 145.26 122.216 145.608L122.948 144.372ZM119.888 149.688V149.016H125.6V146.04H118.304V147.264H124.028V147.876H118.328V150.912H125.912V149.688H119.888ZM129.421 142.536H131.953V141.252H127.861V148.548H128.629C130.045 148.548 131.221 148.5 132.565 148.248L132.445 146.964C131.389 147.156 130.453 147.216 129.421 147.24V142.536ZM135.529 139.968V144.228H134.533V140.184H133.057V150.516H134.533V145.5H135.529V151.032H137.029V139.968H135.529ZM146.029 142.32H148.297V141.036H142.165V142.32H144.433V142.704C144.433 144.756 143.557 146.88 141.709 147.744L142.645 148.992C143.917 148.356 144.781 147.132 145.249 145.644C145.729 147.024 146.581 148.164 147.829 148.776L148.741 147.528C146.905 146.688 146.029 144.648 146.029 142.704V142.32ZM149.569 139.968V143.832H147.625V145.116H149.569V151.056H151.153V139.968H149.569ZM159.654 144.996C157.914 144.48 157.158 143.244 157.134 141.984H159.294V140.712H153.318V141.984H155.514C155.49 143.364 154.698 144.768 152.91 145.368L153.702 146.604C154.998 146.184 155.874 145.308 156.366 144.216C156.846 145.128 157.686 145.86 158.898 146.22L159.654 144.996ZM158.154 149.82C156.738 149.82 155.982 149.52 155.982 148.896C155.982 148.26 156.738 147.96 158.154 147.96C159.558 147.96 160.314 148.26 160.314 148.896C160.314 149.52 159.558 149.82 158.154 149.82ZM158.154 146.736C155.85 146.736 154.41 147.54 154.41 148.896C154.41 150.24 155.85 151.032 158.154 151.032C160.446 151.032 161.886 150.24 161.886 148.896C161.886 147.54 160.446 146.736 158.154 146.736ZM161.766 142.524V139.98H160.182V146.544H161.766V143.82H163.23V142.524H161.766ZM168.671 145.728H170.783V144.456H166.595V142.224H170.711V140.964H165.011V145.728H167.087V147.564C166.115 147.588 165.167 147.588 164.303 147.588L164.495 148.884C166.547 148.884 169.019 148.86 171.383 148.488L171.287 147.336C170.447 147.42 169.559 147.48 168.671 147.528V145.728ZM171.887 139.98V151.056H173.471V139.98H171.887ZM179.716 142.344H181.996V141.036H175.804V142.344H178.108V142.956C178.108 144.84 177.208 146.868 175.36 147.696L176.26 148.956C177.556 148.368 178.444 147.156 178.936 145.716C179.428 147.048 180.304 148.128 181.588 148.68L182.452 147.432C180.604 146.664 179.716 144.756 179.716 142.956V142.344ZM183.016 139.98V151.032H184.6V139.98H183.016ZM191.379 143.1C191.379 142.284 191.979 141.804 192.795 141.804C193.611 141.804 194.211 142.284 194.211 143.1C194.211 143.904 193.611 144.384 192.795 144.384C191.979 144.384 191.379 143.904 191.379 143.1ZM195.735 143.1C195.735 141.588 194.475 140.508 192.795 140.508C191.115 140.508 189.855 141.588 189.855 143.1C189.855 144.6 191.115 145.68 192.795 145.68C194.475 145.68 195.735 144.6 195.735 143.1ZM192.279 146.484H190.743V150.756H191.355C192.435 150.756 193.299 150.696 194.211 150.384L193.995 149.136C193.443 149.316 192.867 149.412 192.279 149.46V146.484ZM196.587 149.976C196.167 149.976 195.855 149.82 195.855 149.484C195.855 149.16 196.167 149.004 196.587 149.004C197.019 149.004 197.319 149.16 197.319 149.484C197.319 149.82 197.019 149.976 196.587 149.976ZM196.587 147.936C195.327 147.936 194.451 148.536 194.451 149.484C194.451 150.444 195.327 151.044 196.587 151.044C197.847 151.044 198.723 150.444 198.723 149.484C198.723 148.536 197.847 147.936 196.587 147.936ZM197.379 145.74H195.843V146.52H193.827V147.66H199.359V146.52H197.379V145.74ZM198.471 142.26V139.98H196.887V145.428H198.471V143.568H199.935V142.26H198.471ZM210.452 143.076C207.968 142.8 206.768 141.552 206.768 140.436V140.1H205.136V140.436C205.136 141.564 203.936 142.788 201.452 143.076L202.004 144.3C203.888 144.06 205.256 143.292 205.952 142.236C206.66 143.292 208.004 144.072 209.888 144.3L210.452 143.076ZM208.124 149.676H203.696V148.716H208.124V149.676ZM208.124 147.528H203.696V146.604H202.124V150.9H209.684V146.604H208.124V147.528ZM200.96 144.804V146.052H210.944V144.804H200.96ZM214.297 141.024H212.725V148.308H213.709C215.389 148.308 217.225 148.188 219.109 147.792L218.941 146.472C217.321 146.796 215.749 146.916 214.297 146.952V141.024ZM219.793 139.968V151.02H221.377V139.968H219.793ZM225.342 142.284H228.918V141H223.758V148.404H224.706C226.626 148.404 228.138 148.344 229.806 148.044L229.65 146.736C228.222 146.976 226.914 147.06 225.342 147.084V142.284ZM233.598 144.06H231.99V139.98H230.406V151.056H231.99V145.368H233.598V144.06Z" fill="#FF0E0E" fill-opacity="0.8"/>
<path d="M79 156H235" stroke="#FF0E0E" stroke-opacity="0.8" stroke-width="1.5"/>
<path d="M4.156 45.176H5.704V50.228C5.188 50.252 4.66 50.264 4.156 50.288V45.176ZM6.904 45.176H7.984V44.18H1.876V45.176H2.956V50.3C2.476 50.312 2.008 50.312 1.588 50.312L1.72 51.332C3.688 51.332 6.244 51.296 8.56 50.912L8.488 50C7.972 50.06 7.444 50.12 6.904 50.156V45.176ZM9.316 43.088V53.936H10.552V43.088H9.316ZM20.1691 47.252H15.2131V45.872H20.1691V47.252ZM21.4051 43.508H20.1691V44.876H15.2131V43.508H13.9771V48.248H21.4051V43.508ZM22.6171 49.424H12.7891V50.42H17.0491V53.936H18.2851V50.42H22.6171V49.424ZM33.1354 48.044C31.5274 47.516 30.6034 46.196 30.6034 44.804V43.64H29.3554V44.708C29.3554 46.268 28.4314 47.744 26.7274 48.332L27.3874 49.316C28.6354 48.86 29.5234 47.924 30.0034 46.748C30.4594 47.768 31.3234 48.596 32.4874 49.016L33.1354 48.044ZM31.8034 52.952C30.2914 52.952 29.4154 52.58 29.4154 51.884C29.4154 51.212 30.2914 50.828 31.8034 50.828C33.3154 50.828 34.1914 51.212 34.1914 51.884C34.1914 52.58 33.3154 52.952 31.8034 52.952ZM31.8034 49.856C29.5714 49.856 28.1914 50.612 28.1914 51.884C28.1914 53.168 29.5714 53.924 31.8034 53.924C34.0474 53.924 35.4154 53.168 35.4154 51.884C35.4154 50.612 34.0474 49.856 31.8034 49.856ZM35.2954 45.764V43.076H34.0594V49.592H35.2954V46.784H36.8314V45.764H35.2954ZM39.5965 48.104H42.5365V47.132H39.5965V45.272H42.7285V44.276H38.4085V51.332H39.1405C40.8325 51.332 41.8885 51.296 43.1365 51.068L43.0285 50.06C41.9245 50.252 40.9885 50.3 39.5965 50.312V48.104ZM46.1005 43.088V47.372H44.8885V43.292H43.7365V53.408H44.8885V48.38H46.1005V53.912H47.2765V43.088H46.1005ZM49.7416 44.228V45.236H53.5336C53.2816 47.732 51.8536 49.64 49.2016 50.996L49.8856 51.944C53.4256 50.156 54.7696 47.372 54.7696 44.228H49.7416ZM59.2456 47.36H57.6016V43.076H56.3656V53.912H57.6016V48.392H59.2456V47.36ZM69.6319 47.552C67.9759 47.072 67.0399 45.908 67.0399 44.696V44.636H69.2959V43.64H63.4759V44.636H65.7799V44.696C65.7799 46.04 64.8079 47.312 63.1039 47.816L63.6919 48.776C65.0119 48.38 65.9479 47.54 66.4399 46.448C66.9199 47.408 67.8199 48.152 69.0559 48.512L69.6319 47.552ZM65.9479 51.872H71.7079V49.124H64.7119V50.072H70.4839V50.984H64.7359V53.828H72.0679V52.868H65.9479V51.872ZM71.7079 45.344V43.088H70.4719V48.656H71.7079V46.364H73.2319V45.344H71.7079ZM79.6103 46.628H84.7463V48.404H79.6103V46.628ZM82.7903 51.584V49.4H85.9703V43.808H84.7463V45.632H79.6103V43.808H78.3863V49.4H81.5543V51.584H77.2823V52.604H87.0983V51.584H82.7903ZM96.1394 43.076V53.948H97.3874V43.076H96.1394ZM91.6154 43.88C90.0074 43.88 88.8314 45.368 88.8314 47.696C88.8314 50.048 90.0074 51.524 91.6154 51.524C93.2354 51.524 94.4114 50.048 94.4114 47.696C94.4114 45.368 93.2354 43.88 91.6154 43.88ZM91.6154 44.996C92.5634 44.996 93.2234 46.016 93.2234 47.696C93.2234 49.4 92.5634 50.42 91.6154 50.42C90.6794 50.42 90.0194 49.4 90.0194 47.696C90.0194 46.016 90.6794 44.996 91.6154 44.996ZM108.36 46.196H102.156V43.472H100.92V47.204H108.36V46.196ZM102.084 50.492H100.848V53.684H108.42V52.688H102.084V50.492ZM99.6484 48.5V49.496H109.488V48.5H99.6484ZM166.192 44.18C167.872 44.18 168.772 44.504 168.772 45.128C168.772 45.74 167.872 46.064 166.192 46.064C164.512 46.064 163.612 45.74 163.612 45.128C163.612 44.504 164.512 44.18 166.192 44.18ZM166.192 46.988C168.616 46.988 170.056 46.328 170.056 45.128C170.056 43.916 168.616 43.256 166.192 43.256C163.756 43.256 162.328 43.916 162.328 45.128C162.328 46.328 163.756 46.988 166.192 46.988ZM163.696 51.98H169.864V49.388H162.448V50.324H168.652V51.104H162.472V53.828H170.176V52.88H163.696V51.98ZM161.284 47.624V48.608H171.1V47.624H161.284ZM183.083 52.796H178.487V51.596H183.083V52.796ZM183.083 50.636H178.487V49.412H177.263V53.792H184.307V49.412H183.083V50.636ZM178.307 47.624C177.347 47.624 176.663 47.012 176.663 46.1C176.663 45.176 177.347 44.588 178.307 44.588C179.243 44.588 179.939 45.176 179.939 46.1C179.939 47.012 179.243 47.624 178.307 47.624ZM183.071 43.088V45.584H181.067C180.827 44.372 179.735 43.568 178.307 43.568C176.675 43.568 175.475 44.612 175.475 46.1C175.475 47.6 176.675 48.644 178.307 48.644C179.747 48.644 180.851 47.816 181.067 46.592H183.071V48.896H184.307V43.088H183.071ZM192.028 51.632V49.784H195.412V48.788H188.92V47.276H195.172V43.844H187.684V44.84H193.948V46.292H187.708V49.784H190.792V51.632H186.52V52.652H196.336V51.632H192.028ZM206.421 48.2H200.145V45.044H206.337V44.036H198.909V49.196H206.421V48.2ZM197.709 51.512V52.532H207.537V51.512H197.709ZM214.383 50.468C213.651 50.468 213.135 49.88 213.135 48.98C213.135 48.08 213.651 47.48 214.383 47.48C215.115 47.48 215.631 48.08 215.631 48.98C215.631 49.88 215.115 50.468 214.383 50.468ZM214.383 46.46C213.015 46.46 212.031 47.48 212.031 48.98C212.031 50.468 213.015 51.5 214.383 51.5C215.751 51.5 216.735 50.468 216.735 48.98C216.735 47.48 215.751 46.46 214.383 46.46ZM214.995 43.4H213.771V44.852H211.719V45.848H217.023V44.852H214.995V43.4ZM219.795 43.088V47.576H218.643V43.316H217.491V53.42H218.643V48.596H219.795V53.924H220.971V43.088H219.795ZM223.916 48.392C225.704 48.128 227.168 47.24 227.828 46.04C228.488 47.24 229.964 48.128 231.752 48.392L232.196 47.42C230.132 47.144 228.608 45.956 228.536 44.696H231.812V43.7H223.832V44.696H227.132C227.06 45.956 225.536 47.144 223.472 47.42L223.916 48.392ZM232.736 49.184H222.932V50.18H227.18V53.936H228.416V50.18H232.724L232.736 49.184ZM237.445 44.084H236.245V46.04C236.245 47.888 235.501 49.832 233.965 50.744L234.721 51.68C235.765 51.044 236.473 49.904 236.857 48.572C237.229 49.784 237.877 50.84 238.861 51.44L239.557 50.48C238.105 49.568 237.445 47.732 237.445 45.98V44.084ZM239.989 46.88H238.393V47.888H239.989V53.42H241.153V43.292H239.989V46.88ZM242.197 43.088V53.924H243.373V43.088H242.197ZM248.838 49.232C249.258 49.328 249.726 49.376 250.206 49.376C250.686 49.376 251.154 49.328 251.574 49.22V51.584H248.838V49.232ZM250.206 44.684C251.838 44.684 252.978 45.404 252.978 46.544C252.978 47.696 251.838 48.416 250.206 48.416C248.562 48.416 247.422 47.696 247.422 46.544C247.422 45.404 248.562 44.684 250.206 44.684ZM252.81 51.584V48.764C253.674 48.272 254.19 47.504 254.19 46.544C254.19 44.816 252.51 43.712 250.206 43.712C247.89 43.712 246.222 44.816 246.222 46.544C246.222 47.504 246.738 48.284 247.602 48.764V51.584H245.31V52.592H255.126V51.584H252.81ZM3.412 69.276H2.188V76.356H3.052C4.72 76.356 6.304 76.248 8.032 75.912L7.888 74.892C6.364 75.192 4.912 75.312 3.412 75.324V69.276ZM9.376 68.088V71.568H6.232V72.576H9.376V78.948H10.612V68.088H9.376ZM20.1691 71.952H15.2131V69.648H20.1691V71.952ZM21.3931 68.664H13.9891V72.948H21.3931V68.664ZM22.6171 74.28H12.7891V75.276H17.0491V78.924H18.2851V75.276H22.6171V74.28ZM115.746 69.18C117.426 69.18 118.326 69.504 118.326 70.128C118.326 70.74 117.426 71.064 115.746 71.064C114.066 71.064 113.166 70.74 113.166 70.128C113.166 69.504 114.066 69.18 115.746 69.18ZM115.746 71.988C118.17 71.988 119.61 71.328 119.61 70.128C119.61 68.916 118.17 68.256 115.746 68.256C113.31 68.256 111.882 68.916 111.882 70.128C111.882 71.328 113.31 71.988 115.746 71.988ZM113.25 76.98H119.418V74.388H112.002V75.324H118.206V76.104H112.026V78.828H119.73V77.88H113.25V76.98ZM110.838 72.624V73.608H120.654V72.624H110.838ZM127.428 70.176H128.976V75.228C128.46 75.252 127.932 75.264 127.428 75.288V70.176ZM130.176 70.176H131.256V69.18H125.148V70.176H126.228V75.3C125.748 75.312 125.28 75.312 124.86 75.312L124.992 76.332C126.96 76.332 129.516 76.296 131.832 75.912L131.76 75C131.244 75.06 130.716 75.12 130.176 75.156V70.176ZM132.588 68.088V78.936H133.824V68.088H132.588ZM138.713 75.468C137.981 75.468 137.465 74.88 137.465 73.98C137.465 73.08 137.981 72.48 138.713 72.48C139.445 72.48 139.961 73.08 139.961 73.98C139.961 74.88 139.445 75.468 138.713 75.468ZM138.713 71.46C137.345 71.46 136.361 72.48 136.361 73.98C136.361 75.468 137.345 76.5 138.713 76.5C140.081 76.5 141.065 75.468 141.065 73.98C141.065 72.48 140.081 71.46 138.713 71.46ZM139.325 68.4H138.101V69.852H136.049V70.848H141.353V69.852H139.325V68.4ZM144.125 68.088V72.576H142.973V68.316H141.821V78.42H142.973V73.596H144.125V78.924H145.301V68.088H144.125ZM148.246 73.392C150.034 73.128 151.498 72.24 152.158 71.04C152.818 72.24 154.294 73.128 156.082 73.392L156.526 72.42C154.462 72.144 152.938 70.956 152.866 69.696H156.142V68.7H148.162V69.696H151.462C151.39 70.956 149.866 72.144 147.802 72.42L148.246 73.392ZM157.066 74.184H147.262V75.18H151.51V78.936H152.746V75.18H157.054L157.066 74.184ZM161.775 69.084H160.575V71.04C160.575 72.888 159.831 74.832 158.295 75.744L159.051 76.68C160.095 76.044 160.803 74.904 161.187 73.572C161.559 74.784 162.207 75.84 163.191 76.44L163.887 75.48C162.435 74.568 161.775 72.732 161.775 70.98V69.084ZM164.319 71.88H162.723V72.888H164.319V78.42H165.483V68.292H164.319V71.88ZM166.527 68.088V78.924H167.703V68.088H166.527ZM173.168 74.232C173.588 74.328 174.056 74.376 174.536 74.376C175.016 74.376 175.484 74.328 175.904 74.22V76.584H173.168V74.232ZM174.536 69.684C176.168 69.684 177.308 70.404 177.308 71.544C177.308 72.696 176.168 73.416 174.536 73.416C172.892 73.416 171.752 72.696 171.752 71.544C171.752 70.404 172.892 69.684 174.536 69.684ZM177.14 76.584V73.764C178.004 73.272 178.52 72.504 178.52 71.544C178.52 69.816 176.84 68.712 174.536 68.712C172.22 68.712 170.552 69.816 170.552 71.544C170.552 72.504 171.068 73.284 171.932 73.764V76.584H169.64V77.592H179.456V76.584H177.14ZM3.94 96.628H9.076V98.404H3.94V96.628ZM7.12 101.584V99.4H10.3V93.808H9.076V95.632H3.94V93.808H2.716V99.4H5.884V101.584H1.612V102.604H11.428V101.584H7.12ZM18.6211 95.812V96.82H20.5411V99.544H21.7771V93.088H20.5411V95.812H18.6211ZM19.2451 98.224C17.6251 97.66 16.7011 96.316 16.7011 94.96V94.816H18.9571V93.82H13.1611V94.816H15.4531V94.972C15.4531 96.46 14.4811 97.9 12.8011 98.5L13.4371 99.484C14.7211 99.028 15.6331 98.068 16.1131 96.88C16.5691 97.924 17.4331 98.776 18.6331 99.196L19.2451 98.224ZM18.1771 102.976C16.6291 102.976 15.7531 102.592 15.7531 101.884C15.7531 101.176 16.6291 100.792 18.1771 100.792C19.7011 100.792 20.5891 101.176 20.5891 101.884C20.5891 102.592 19.7011 102.976 18.1771 102.976ZM18.1771 99.832C15.9091 99.832 14.5171 100.6 14.5171 101.884C14.5171 103.18 15.9091 103.936 18.1771 103.936C20.4331 103.936 21.8251 103.18 21.8251 101.884C21.8251 100.6 20.4331 99.832 18.1771 99.832ZM32.9181 93.076H31.6821V101.224H32.9181V93.076ZM30.9141 98.632C30.0501 98.728 29.1381 98.788 28.2021 98.824V97.54H30.2301V96.532H26.1981V94.768H30.1701V93.76H24.9621V97.54H26.9661V98.872C25.9341 98.908 24.9261 98.92 24.0261 98.92L24.1941 99.916C26.2101 99.916 28.7181 99.856 30.9981 99.532L30.9141 98.632ZM27.0141 102.712V100.66H25.7781V103.72H33.2541V102.712H27.0141ZM41.8165 93.988H40.5805V95.764C40.5805 97.768 39.5245 99.82 37.8325 100.648L38.5885 101.644C39.8245 101.008 40.7365 99.748 41.2045 98.248C41.6725 99.664 42.5365 100.84 43.7005 101.44L44.4565 100.456C42.8245 99.652 41.8165 97.696 41.8165 95.764V93.988ZM48.1045 97.384H46.4125V93.088H45.1765V103.924H46.4125V98.404H48.1045V97.384ZM58.1416 93.1H56.9056V100.984H58.1416V93.1ZM55.8976 98.56C54.2296 98.02 53.2456 96.7 53.2456 95.32V94.924H55.5616V93.928H49.6336V94.924H51.9856V95.32C51.9856 96.784 51.0136 98.188 49.2976 98.764L49.9456 99.724C51.2416 99.292 52.1536 98.368 52.6336 97.216C53.1136 98.284 54.0256 99.124 55.2736 99.532L55.8976 98.56ZM52.3096 102.712V100.264H51.0616V103.72H58.4536V102.712H52.3096ZM65.2986 94.42C66.8826 94.42 67.8786 94.864 67.8786 95.62C67.8786 96.388 66.8826 96.832 65.2986 96.832C63.7026 96.832 62.7066 96.388 62.7066 95.62C62.7066 94.864 63.7026 94.42 65.2986 94.42ZM65.2986 97.828C67.6386 97.828 69.1626 97 69.1626 95.62C69.1626 94.252 67.6386 93.424 65.2986 93.424C62.9586 93.424 61.4346 94.252 61.4346 95.62C61.4346 97 62.9586 97.828 65.2986 97.828ZM62.8746 100.564H61.6266V103.72H69.1026V102.712H62.8746V100.564ZM60.3906 98.704V99.712H70.1946V98.704H60.3906ZM80.257 95.812V96.82H82.177V99.544H83.413V93.088H82.177V95.812H80.257ZM80.881 98.224C79.261 97.66 78.337 96.316 78.337 94.96V94.816H80.593V93.82H74.797V94.816H77.089V94.972C77.089 96.46 76.117 97.9 74.437 98.5L75.073 99.484C76.357 99.028 77.269 98.068 77.749 96.88C78.205 97.924 79.069 98.776 80.269 99.196L80.881 98.224ZM79.813 102.976C78.265 102.976 77.389 102.592 77.389 101.884C77.389 101.176 78.265 100.792 79.813 100.792C81.337 100.792 82.225 101.176 82.225 101.884C82.225 102.592 81.337 102.976 79.813 102.976ZM79.813 99.832C77.545 99.832 76.153 100.6 76.153 101.884C76.153 103.18 77.545 103.936 79.813 103.936C82.069 103.936 83.461 103.18 83.461 101.884C83.461 100.6 82.069 99.832 79.813 99.832ZM91.9981 94H89.5381V92.992H88.2901V94H85.8061V94.9H91.9981V94ZM87.4861 96.856C87.4861 96.364 88.0381 96.064 88.9021 96.064C89.7661 96.064 90.3181 96.364 90.3181 96.856C90.3181 97.336 89.7661 97.624 88.9021 97.624C88.0381 97.624 87.4861 97.336 87.4861 96.856ZM92.2981 98.848C91.4221 98.98 90.4741 99.04 89.5381 99.088V98.416C90.7381 98.272 91.4821 97.708 91.4821 96.856C91.4821 95.848 90.4621 95.236 88.9021 95.236C87.3421 95.236 86.3221 95.848 86.3221 96.856C86.3221 97.708 87.0661 98.284 88.2901 98.416V99.136C87.2941 99.16 86.3461 99.16 85.5301 99.16L85.6741 100.144C87.5701 100.132 90.1021 100.12 92.3941 99.712L92.2981 98.848ZM86.8741 101.884H92.8741V103.936H94.1101V100.9H86.8741V101.884ZM95.5981 96.292H94.1101V93.1H92.8741V100.42H94.1101V97.312H95.5981V96.292ZM103.223 94.324H100.643V93.076H99.4071V94.324H96.8271V95.308H103.223V94.324ZM98.5791 97.864C98.5791 97.18 99.1671 96.772 100.019 96.772C100.883 96.772 101.471 97.18 101.471 97.864C101.471 98.548 100.883 98.956 100.019 98.956C99.1671 98.956 98.5791 98.548 98.5791 97.864ZM102.647 97.864C102.647 96.64 101.579 95.812 100.019 95.812C98.4711 95.812 97.3911 96.64 97.3911 97.864C97.3911 99.1 98.4711 99.916 100.019 99.916C101.579 99.916 102.647 99.1 102.647 97.864ZM99.6591 100.588H98.4111V103.72H105.707V102.712H99.6591V100.588ZM105.275 96.544V93.088H104.039V101.212H105.275V97.564H106.811V96.544H105.275ZM111.726 98.008C113.61 97.852 115.062 97.228 115.734 96.256C116.406 97.228 117.858 97.852 119.742 98.008L120.126 97.072C117.918 96.904 116.562 96.1 116.442 95.116H119.658V94.144H116.358V93.076H115.122V94.144H111.81V95.116H115.038C114.918 96.1 113.55 96.904 111.354 97.072L111.726 98.008ZM111.93 101.5H118.206V103.936H119.442V100.504H111.93V101.5ZM110.838 98.524V99.52H120.642V98.524H110.838ZM127.859 95.812V96.82H129.779V99.544H131.015V93.088H129.779V95.812H127.859ZM128.483 98.224C126.863 97.66 125.939 96.316 125.939 94.96V94.816H128.195V93.82H122.399V94.816H124.691V94.972C124.691 96.46 123.719 97.9 122.039 98.5L122.675 99.484C123.959 99.028 124.871 98.068 125.351 96.88C125.807 97.924 126.671 98.776 127.871 99.196L128.483 98.224ZM127.415 102.976C125.867 102.976 124.991 102.592 124.991 101.884C124.991 101.176 125.867 100.792 127.415 100.792C128.939 100.792 129.827 101.176 129.827 101.884C129.827 102.592 128.939 102.976 127.415 102.976ZM127.415 99.832C125.147 99.832 123.755 100.6 123.755 101.884C123.755 103.18 125.147 103.936 127.415 103.936C129.671 103.936 131.063 103.18 131.063 101.884C131.063 100.6 129.671 99.832 127.415 99.832ZM140.896 93.076V103.948H142.144V93.076H140.896ZM136.372 93.88C134.764 93.88 133.588 95.368 133.588 97.696C133.588 100.048 134.764 101.524 136.372 101.524C137.992 101.524 139.168 100.048 139.168 97.696C139.168 95.368 137.992 93.88 136.372 93.88ZM136.372 94.996C137.32 94.996 137.98 96.016 137.98 97.696C137.98 99.4 137.32 100.42 136.372 100.42C135.436 100.42 134.776 99.4 134.776 97.696C134.776 96.016 135.436 94.996 136.372 94.996ZM150.178 100.42C149.254 100.42 148.618 99.412 148.618 97.696C148.618 96.016 149.254 94.996 150.178 94.996C151.114 94.996 151.75 96.016 151.75 97.696C151.75 99.412 151.114 100.42 150.178 100.42ZM155.014 93.076V97.12H152.902C152.734 95.128 151.63 93.88 150.178 93.88C148.582 93.88 147.442 95.368 147.442 97.696C147.442 100.048 148.582 101.524 150.178 101.524C151.666 101.524 152.77 100.228 152.914 98.128H155.014V103.948H156.262V93.076H155.014ZM160.047 98.056H163.587V94.024H158.811V95.02H162.375V97.06H158.835V101.464H159.663C161.343 101.464 162.735 101.428 164.379 101.164L164.283 100.144C162.795 100.372 161.523 100.432 160.047 100.444V98.056ZM166.191 93.064V95.476H164.211V96.484H166.191V98.428H164.151V99.436H166.191V103.936H167.427V93.064H166.191ZM173.12 94.528C174.044 94.528 174.692 95.008 174.692 95.752C174.692 96.508 174.044 96.976 173.12 96.976C172.184 96.976 171.536 96.508 171.536 95.752C171.536 95.008 172.184 94.528 173.12 94.528ZM173.12 97.936C174.716 97.936 175.856 97.06 175.856 95.752C175.856 94.468 174.716 93.592 173.12 93.592C171.512 93.592 170.372 94.468 170.372 95.752C170.372 97.06 171.512 97.936 173.12 97.936ZM176.66 98.356C174.32 98.68 171.632 98.704 169.592 98.704L169.748 99.724C170.564 99.724 171.476 99.712 172.436 99.676V103.588H173.672V99.616C174.692 99.556 175.724 99.448 176.732 99.268L176.66 98.356ZM177.416 93.088V100.432H175.1V101.38H177.416V103.924H178.664V93.088H177.416ZM184.357 99.232C184.777 99.328 185.245 99.376 185.725 99.376C186.205 99.376 186.673 99.328 187.093 99.22V101.584H184.357V99.232ZM185.725 94.684C187.357 94.684 188.497 95.404 188.497 96.544C188.497 97.696 187.357 98.416 185.725 98.416C184.081 98.416 182.941 97.696 182.941 96.544C182.941 95.404 184.081 94.684 185.725 94.684ZM188.329 101.584V98.764C189.193 98.272 189.709 97.504 189.709 96.544C189.709 94.816 188.029 93.712 185.725 93.712C183.409 93.712 181.741 94.816 181.741 96.544C181.741 97.504 182.257 98.284 183.121 98.764V101.584H180.829V102.592H190.645V101.584H188.329Z" fill="#181818" fill-opacity="0.8"/>
<path d="M119.515 45.812V46.82H121.435V49.544H122.671V43.088H121.435V45.812H119.515ZM120.139 48.224C118.519 47.66 117.595 46.316 117.595 44.96V44.816H119.851V43.82H114.055V44.816H116.347V44.972C116.347 46.46 115.375 47.9 113.695 48.5L114.331 49.484C115.615 49.028 116.527 48.068 117.007 46.88C117.463 47.924 118.327 48.776 119.527 49.196L120.139 48.224ZM119.071 52.976C117.523 52.976 116.647 52.592 116.647 51.884C116.647 51.176 117.523 50.792 119.071 50.792C120.595 50.792 121.483 51.176 121.483 51.884C121.483 52.592 120.595 52.976 119.071 52.976ZM119.071 49.832C116.803 49.832 115.411 50.6 115.411 51.884C115.411 53.18 116.803 53.936 119.071 53.936C121.327 53.936 122.719 53.18 122.719 51.884C122.719 50.6 121.327 49.832 119.071 49.832ZM129.168 48.188H126.564V44.972H129.168V48.188ZM132.624 45.908V47.228H130.368V45.908H132.624ZM130.368 48.224H132.624V50.996H133.86V43.088H132.624V44.9H130.368V43.988H125.352V49.172H130.368V48.224ZM128.052 52.712V50.276H126.804V53.72H134.112V52.712H128.052ZM142.71 43.988H141.474V45.764C141.474 47.768 140.418 49.82 138.726 50.648L139.482 51.644C140.718 51.008 141.63 49.748 142.098 48.248C142.566 49.664 143.43 50.84 144.594 51.44L145.35 50.456C143.718 49.652 142.71 47.696 142.71 45.764V43.988ZM148.998 47.384H147.306V43.088H146.07V53.924H147.306V48.404H148.998V47.384ZM159.035 43.1H157.799V50.984H159.035V43.1ZM156.791 48.56C155.123 48.02 154.139 46.7 154.139 45.32V44.924H156.455V43.928H150.527V44.924H152.879V45.32C152.879 46.784 151.907 48.188 150.191 48.764L150.839 49.724C152.135 49.292 153.047 48.368 153.527 47.216C154.007 48.284 154.919 49.124 156.167 49.532L156.791 48.56ZM153.203 52.712V50.264H151.955V53.72H159.347V52.712H153.203ZM31.0954 72.432H28.4434V71.028H31.0954V72.432ZM32.3194 68.604H31.0954V70.08H28.4434V68.604H27.2074V73.416H32.3194V68.604ZM29.0794 76.992H31.4434V74.388H27.8674V75.312H30.2434V76.128H27.8914V78.816H28.5634C30.4714 78.816 31.2874 78.78 32.2594 78.576L32.1514 77.664C31.2874 77.844 30.5674 77.88 29.0794 77.892V76.992ZM31.8874 75.372H34.0714V78.876H35.2954V74.388H31.8874V75.372ZM36.8194 70.38H35.2954V68.088H34.0594V73.848H35.2954V71.4H36.8194V70.38ZM38.4445 69.228V70.236H42.2125C42.0085 72.696 40.7845 74.604 37.9645 75.996L38.6245 76.956C42.2965 75.132 43.4725 72.408 43.4725 69.228H38.4445ZM45.7525 68.088V72.348H43.4245V73.368H45.7525V78.936H47.0005V68.088H45.7525ZM50.8216 69.144H49.5856V76.224H50.4856C52.1176 76.224 53.7976 76.104 55.6336 75.744L55.4896 74.724C53.8456 75.06 52.2856 75.18 50.8216 75.192V69.144ZM59.2456 72.312H57.6016V68.088H56.3656V78.924H57.6016V73.332H59.2456V72.312ZM66.1639 75.42C65.2399 75.42 64.6039 74.412 64.6039 72.696C64.6039 71.016 65.2399 69.996 66.1639 69.996C67.0999 69.996 67.7359 71.016 67.7359 72.696C67.7359 74.412 67.0999 75.42 66.1639 75.42ZM70.9999 68.076V72.12H68.8879C68.7199 70.128 67.6159 68.88 66.1639 68.88C64.5679 68.88 63.4279 70.368 63.4279 72.696C63.4279 75.048 64.5679 76.524 66.1639 76.524C67.6519 76.524 68.7559 75.228 68.8999 73.128H70.9999V78.948H72.2479V68.076H70.9999ZM83.065 72.036H76.993V69.696H82.933V68.7H75.721V73.032H83.065V72.036ZM84.253 74.28H74.413V75.3H78.685V78.9H79.921V75.3H84.253V74.28ZM90.5221 69.324C92.0461 69.324 93.0421 69.768 93.0421 70.536C93.0421 71.304 92.0461 71.748 90.5221 71.748C88.9861 71.748 87.9901 71.304 87.9901 70.536C87.9901 69.768 88.9861 69.324 90.5221 69.324ZM90.5221 72.744C92.8381 72.744 94.3621 71.892 94.3621 70.536C94.3621 69.18 92.8381 68.328 90.5221 68.328C88.1941 68.328 86.6821 69.18 86.6821 70.536C86.6821 71.892 88.1941 72.744 90.5221 72.744ZM88.0741 75.516H86.8261V78.72H94.3621V77.712H88.0741V75.516ZM85.6141 73.476V74.484H89.9821V76.536H91.2421V74.484H95.4421V73.476H85.6141ZM107.976 72.396C108.24 71.172 108.24 70.224 108.24 69.408V68.592H100.8V69.576H107.016C107.016 70.32 106.992 71.16 106.752 72.276L107.976 72.396ZM105.132 74.832H103.884V75.252C103.884 76.524 102.468 77.64 100.296 77.928L100.764 78.876C102.48 78.624 103.848 77.88 104.508 76.812C105.18 77.88 106.548 78.624 108.276 78.876L108.72 77.928C106.548 77.64 105.132 76.524 105.132 75.252V74.832ZM104.76 73.08V70.98H103.512V73.08H99.6724V74.076H109.452V73.08H104.76Z" fill="#3AD29F" fill-opacity="0.8"/>
</svg>
