<svg width="328" height="173" viewBox="0 0 328 173" fill="none" xmlns="http://www.w3.org/2000/svg">
<rect width="328" height="173" fill="#E5E5E5"/>
<g clip-path="url(#clip0_0_1)" filter="url(#filter0_d_0_1)">
<rect width="414" height="736" transform="translate(-46 -261)" fill="white"/>
<rect x="328" width="173" height="328" rx="10" transform="rotate(90 328 0)" fill="#EDEDED"/>
<path d="M160.244 81.0555C158.976 81.0555 157.948 79.989 157.948 78.6735C157.948 77.358 158.976 76.2916 160.244 76.2916C161.513 76.2916 162.541 77.358 162.541 78.6735C162.541 79.989 161.513 81.0555 160.244 81.0555Z" fill="#525252"/>
<path d="M174.791 90.5833H156.416L161.01 84.2314L162.541 85.8194L167.135 79.4675L174.791 90.5833Z" fill="#525252"/>
<path fill-rule="evenodd" clip-rule="evenodd" d="M176.833 98.7499H152.333C150.078 98.7499 148.25 96.9218 148.25 94.6666V70.1666C148.25 67.9114 150.078 66.0833 152.333 66.0833H176.833C179.088 66.0833 180.916 67.9114 180.916 70.1666V94.6666C180.916 96.9218 179.088 98.7499 176.833 98.7499ZM152.333 70.1666V94.6666H176.833V70.1666H152.333Z" fill="#525252"/>
<path d="M144.166 78.3333H140.083V102.833C140.083 105.088 141.911 106.917 144.166 106.917H168.666V102.833H144.166V78.3333Z" fill="#525252"/>
</g>
<defs>
<filter id="filter0_d_0_1" x="-71" y="-286" width="464" height="786" filterUnits="userSpaceOnUse" color-interpolation-filters="sRGB">
<feFlood flood-opacity="0" result="BackgroundImageFix"/>
<feColorMatrix in="SourceAlpha" type="matrix" values="0 0 0 0 0 0 0 0 0 0 0 0 0 0 0 0 0 0 127 0" result="hardAlpha"/>
<feOffset/>
<feGaussianBlur stdDeviation="12.5"/>
<feComposite in2="hardAlpha" operator="out"/>
<feColorMatrix type="matrix" values="0 0 0 0 0 0 0 0 0 0 0 0 0 0 0 0 0 0 0.25 0"/>
<feBlend mode="normal" in2="BackgroundImageFix" result="effect1_dropShadow_0_1"/>
<feBlend mode="normal" in="SourceGraphic" in2="effect1_dropShadow_0_1" result="shape"/>
</filter>
<clipPath id="clip0_0_1">
<rect width="414" height="736" fill="white" transform="translate(-46 -261)"/>
</clipPath>
</defs>
</svg>
