<svg width="164" height="50" viewBox="0 0 164 50" fill="none" xmlns="http://www.w3.org/2000/svg">
<path d="M4.21723 46.12C6.15723 46.12 7.82723 44.67 7.82723 42.39C7.82723 40.12 6.15723 38.7 4.21723 38.7C2.27723 38.7 0.607228 40.12 0.607228 42.39C0.607228 44.67 2.27723 46.12 4.21723 46.12ZM4.21723 45.66C2.52723 45.66 1.12723 44.34 1.12723 42.39C1.12723 40.44 2.52723 39.16 4.21723 39.16C5.89723 39.16 7.30723 40.44 7.30723 42.39C7.30723 44.34 5.89723 45.66 4.21723 45.66ZM4.29723 44.6C4.96723 44.6 5.40723 44.33 5.80723 43.97L5.47723 43.49C5.14723 43.77 4.81723 43.99 4.33723 43.99C3.52723 43.99 3.00723 43.37 3.00723 42.39C3.00723 41.51 3.54723 40.89 4.36723 40.89C4.76723 40.89 5.03723 41.06 5.34723 41.35L5.72723 40.91C5.37723 40.55 4.96723 40.28 4.33723 40.28C3.25723 40.28 2.27723 41.09 2.27723 42.39C2.27723 43.77 3.17723 44.6 4.29723 44.6ZM11.3539 46H15.9639V45.21H13.9339C13.5639 45.21 13.1139 45.25 12.7339 45.28C14.4539 43.65 15.6039 42.16 15.6039 40.7C15.6039 39.39 14.7839 38.53 13.4739 38.53C12.5439 38.53 11.9139 38.96 11.3139 39.61L11.8439 40.13C12.2439 39.65 12.7639 39.28 13.3639 39.28C14.2739 39.28 14.7139 39.89 14.7139 40.73C14.7139 41.99 13.6539 43.45 11.3539 45.46V46ZM19.3907 46.13C20.7807 46.13 21.6707 44.86 21.6707 42.31C21.6707 39.77 20.7807 38.53 19.3907 38.53C17.9907 38.53 17.1007 39.76 17.1007 42.31C17.1007 44.86 17.9907 46.13 19.3907 46.13ZM19.3907 45.4C18.5507 45.4 17.9907 44.47 17.9907 42.31C17.9907 40.17 18.5507 39.27 19.3907 39.27C20.2207 39.27 20.7807 40.17 20.7807 42.31C20.7807 44.47 20.2207 45.4 19.3907 45.4ZM22.7476 46H27.3576V45.21H25.3276C24.9576 45.21 24.5076 45.25 24.1276 45.28C25.8476 43.65 26.9976 42.16 26.9976 40.7C26.9976 39.39 26.1776 38.53 24.8676 38.53C23.9376 38.53 23.3076 38.96 22.7076 39.61L23.2376 40.13C23.6376 39.65 24.1576 39.28 24.7576 39.28C25.6676 39.28 26.1076 39.89 26.1076 40.73C26.1076 41.99 25.0476 43.45 22.7476 45.46V46ZM28.8845 46H32.9045V45.24H31.4345V38.67H30.7345C30.3345 38.9 29.8645 39.07 29.2145 39.19V39.77H30.5145V45.24H28.8845V46ZM35.0914 46.13C35.4514 46.13 35.7514 45.85 35.7514 45.44C35.7514 45.03 35.4514 44.73 35.0914 44.73C34.7314 44.73 34.4314 45.03 34.4314 45.44C34.4314 45.85 34.7314 46.13 35.0914 46.13ZM45.0609 41.67C43.8109 41.88 42.7509 41.92 40.8809 41.92V40.74H44.0909V40.09H40.8809V38.98H44.3409V38.32H40.0609V42.58H40.7909C42.7509 42.58 43.8409 42.54 45.1509 42.32L45.0609 41.67ZM41.9109 44.23H46.1109V45.96H41.9109V44.23ZM41.1109 46.62H46.9109V43.57H41.1109V46.62ZM46.0909 37.78V43.13H46.9109V37.78H46.0909ZM53.2964 39.4H54.7964V43.76C54.2864 43.78 53.7864 43.8 53.2964 43.81V39.4ZM55.5864 39.4H56.5864V38.74H51.5064V39.4H52.5064V43.82C52.0764 43.83 51.6664 43.83 51.2864 43.83L51.3764 44.52C53.0064 44.51 55.1664 44.49 57.0964 44.18L57.0464 43.58C56.5764 43.64 56.0864 43.69 55.5864 43.71V39.4ZM57.8264 37.78V46.74H58.6464V37.78H57.8264ZM61.8357 39.31H65.1857V38.63H61.0157V44.52H61.7257C63.4157 44.52 64.5957 44.46 65.9657 44.2L65.8757 43.52C64.5757 43.75 63.4257 43.82 61.8357 43.82V39.31ZM69.0157 41.31H67.5357V37.77H66.7157V46.76H67.5357V41.99H69.0157V41.31ZM70.8449 46.13C71.2049 46.13 71.5049 45.85 71.5049 45.44C71.5049 45.03 71.2049 44.73 70.8449 44.73C70.4849 44.73 70.1849 45.03 70.1849 45.44C70.1849 45.85 70.4849 46.13 70.8449 46.13ZM76.6844 43.02L77.0444 41.9C77.3044 41.07 77.5444 40.28 77.7744 39.42H77.8144C78.0544 40.27 78.2844 41.07 78.5544 41.9L78.9044 43.02H76.6844ZM79.8344 46H80.8144L78.3244 38.67H77.2944L74.8044 46H75.7444L76.4544 43.76H79.1344L79.8344 46ZM82.8786 46.13C83.1186 46.13 83.2786 46.1 83.4086 46.05L83.2786 45.35C83.1786 45.37 83.1386 45.37 83.0886 45.37C82.9486 45.37 82.8286 45.26 82.8286 44.98V38.04H81.9186V44.92C81.9186 45.69 82.1986 46.13 82.8786 46.13ZM85.8802 46.13C86.1202 46.13 86.2802 46.1 86.4102 46.05L86.2802 45.35C86.1802 45.37 86.1402 45.37 86.0902 45.37C85.9502 45.37 85.8302 45.26 85.8302 44.98V38.04H84.9202V44.92C84.9202 45.69 85.2002 46.13 85.8802 46.13ZM90.3081 46H91.2181V42.51C91.5781 41.58 92.1381 41.26 92.5881 41.26C92.8081 41.26 92.9381 41.28 93.1181 41.35L93.2881 40.55C93.1181 40.46 92.9481 40.43 92.7081 40.43C92.0981 40.43 91.5481 40.87 91.1681 41.56H91.1381L91.0581 40.57H90.3081V46ZM94.335 46H95.245V40.57H94.335V46ZM94.795 39.45C95.155 39.45 95.425 39.2 95.425 38.86C95.425 38.49 95.155 38.27 94.795 38.27C94.435 38.27 94.165 38.49 94.165 38.86C94.165 39.2 94.435 39.45 94.795 39.45ZM99.0689 48.5C100.749 48.5 101.809 47.63 101.809 46.62C101.809 45.73 101.179 45.33 99.9189 45.33H98.8589C98.1289 45.33 97.9089 45.09 97.9089 44.74C97.9089 44.44 98.0589 44.26 98.2589 44.09C98.4989 44.21 98.7989 44.28 99.0689 44.28C100.169 44.28 101.049 43.55 101.049 42.39C101.049 41.92 100.869 41.52 100.609 41.27H101.719V40.57H99.8289C99.6389 40.5 99.3689 40.43 99.0689 40.43C97.9689 40.43 97.0289 41.18 97.0289 42.37C97.0289 43.02 97.3789 43.54 97.7389 43.83V43.87C97.4589 44.07 97.1289 44.43 97.1289 44.88C97.1289 45.31 97.3389 45.6 97.6289 45.77V45.81C97.1189 46.14 96.8189 46.58 96.8189 47.04C96.8189 47.98 97.7389 48.5 99.0689 48.5ZM99.0689 43.66C98.4389 43.66 97.9089 43.16 97.9089 42.37C97.9089 41.57 98.4289 41.1 99.0689 41.1C99.7089 41.1 100.219 41.58 100.219 42.37C100.219 43.16 99.6889 43.66 99.0689 43.66ZM99.1989 47.88C98.2089 47.88 97.6189 47.5 97.6189 46.92C97.6189 46.6 97.7889 46.28 98.1789 46C98.4189 46.06 98.6789 46.09 98.8789 46.09H99.8189C100.539 46.09 100.929 46.26 100.929 46.76C100.929 47.33 100.239 47.88 99.1989 47.88ZM103.024 46H103.934V42.06C104.484 41.51 104.864 41.23 105.424 41.23C106.144 41.23 106.454 41.66 106.454 42.68V46H107.364V42.56C107.364 41.17 106.844 40.43 105.704 40.43C104.964 40.43 104.404 40.84 103.904 41.34L103.934 40.22V38.04H103.024V46ZM110.958 46.13C111.288 46.13 111.648 46.03 111.958 45.93L111.778 45.25C111.598 45.32 111.348 45.39 111.158 45.39C110.528 45.39 110.318 45.01 110.318 44.34V41.31H111.788V40.57H110.318V39.05H109.558L109.448 40.57L108.598 40.62V41.31H109.408V44.32C109.408 45.41 109.798 46.13 110.958 46.13ZM114.48 46.13C115.76 46.13 116.46 45.4 116.46 44.52C116.46 43.49 115.59 43.17 114.8 42.87C114.19 42.64 113.6 42.45 113.6 41.93C113.6 41.51 113.91 41.15 114.59 41.15C115.08 41.15 115.46 41.35 115.84 41.63L116.28 41.04C115.85 40.71 115.26 40.43 114.59 40.43C113.41 40.43 112.72 41.11 112.72 41.97C112.72 42.89 113.58 43.26 114.34 43.54C114.94 43.77 115.58 44.02 115.58 44.57C115.58 45.04 115.23 45.42 114.51 45.42C113.86 45.42 113.37 45.16 112.9 44.78L112.45 45.38C112.97 45.81 113.71 46.13 114.48 46.13ZM120.274 46H121.184V42.51C121.544 41.58 122.104 41.26 122.554 41.26C122.774 41.26 122.904 41.28 123.084 41.35L123.254 40.55C123.084 40.46 122.914 40.43 122.674 40.43C122.064 40.43 121.514 40.87 121.134 41.56H121.104L121.024 40.57H120.274V46ZM126.384 46.13C127.124 46.13 127.704 45.88 128.184 45.57L127.854 44.97C127.454 45.24 127.024 45.4 126.494 45.4C125.464 45.4 124.754 44.66 124.694 43.5H128.354C128.374 43.37 128.394 43.18 128.394 42.98C128.394 41.43 127.614 40.43 126.234 40.43C124.974 40.43 123.784 41.53 123.784 43.29C123.784 45.08 124.944 46.13 126.384 46.13ZM124.684 42.85C124.794 41.78 125.474 41.16 126.244 41.16C127.094 41.16 127.594 41.75 127.594 42.85H124.684ZM131.301 46.13C132.581 46.13 133.281 45.4 133.281 44.52C133.281 43.49 132.411 43.17 131.621 42.87C131.011 42.64 130.421 42.45 130.421 41.93C130.421 41.51 130.731 41.15 131.411 41.15C131.901 41.15 132.281 41.35 132.661 41.63L133.101 41.04C132.671 40.71 132.081 40.43 131.411 40.43C130.231 40.43 129.541 41.11 129.541 41.97C129.541 42.89 130.401 43.26 131.161 43.54C131.761 43.77 132.401 44.02 132.401 44.57C132.401 45.04 132.051 45.42 131.331 45.42C130.681 45.42 130.191 45.16 129.721 44.78L129.271 45.38C129.791 45.81 130.531 46.13 131.301 46.13ZM136.898 46.13C137.638 46.13 138.218 45.88 138.698 45.57L138.368 44.97C137.968 45.24 137.538 45.4 137.008 45.4C135.978 45.4 135.268 44.66 135.208 43.5H138.868C138.888 43.37 138.908 43.18 138.908 42.98C138.908 41.43 138.128 40.43 136.748 40.43C135.488 40.43 134.298 41.53 134.298 43.29C134.298 45.08 135.458 46.13 136.898 46.13ZM135.198 42.85C135.308 41.78 135.988 41.16 136.758 41.16C137.608 41.16 138.108 41.75 138.108 42.85H135.198ZM140.396 46H141.306V42.51C141.666 41.58 142.226 41.26 142.676 41.26C142.896 41.26 143.026 41.28 143.206 41.35L143.376 40.55C143.206 40.46 143.036 40.43 142.796 40.43C142.186 40.43 141.636 40.87 141.256 41.56H141.226L141.146 40.57H140.396V46ZM145.886 46H146.946L148.876 40.57H147.976L146.946 43.66C146.786 44.19 146.606 44.75 146.446 45.26H146.406C146.236 44.75 146.066 44.19 145.896 43.66L144.876 40.57H143.926L145.886 46ZM152.231 46.13C152.971 46.13 153.551 45.88 154.031 45.57L153.701 44.97C153.301 45.24 152.871 45.4 152.341 45.4C151.311 45.4 150.601 44.66 150.541 43.5H154.201C154.221 43.37 154.241 43.18 154.241 42.98C154.241 41.43 153.461 40.43 152.081 40.43C150.821 40.43 149.631 41.53 149.631 43.29C149.631 45.08 150.791 46.13 152.231 46.13ZM150.531 42.85C150.641 41.78 151.321 41.16 152.091 41.16C152.941 41.16 153.441 41.75 153.441 42.85H150.531ZM157.578 46.13C158.228 46.13 158.798 45.78 159.228 45.36H159.248L159.338 46H160.078V38.04H159.168V40.13L159.218 41.07C158.738 40.67 158.328 40.43 157.688 40.43C156.448 40.43 155.338 41.53 155.338 43.29C155.338 45.1 156.218 46.13 157.578 46.13ZM157.778 45.37C156.818 45.37 156.278 44.59 156.278 43.28C156.278 42.04 156.968 41.2 157.848 41.2C158.298 41.2 158.708 41.36 159.168 41.77V44.62C158.718 45.12 158.278 45.37 157.778 45.37ZM162.55 46.13C162.91 46.13 163.21 45.85 163.21 45.44C163.21 45.03 162.91 44.73 162.55 44.73C162.19 44.73 161.89 45.03 161.89 45.44C161.89 45.85 162.19 46.13 162.55 46.13Z" fill="#B9B9B9"/>
<path d="M26.0175 29H26.9275V25.06C27.4775 24.51 27.8575 24.23 28.4175 24.23C29.1375 24.23 29.4475 24.66 29.4475 25.68V29H30.3575V25.56C30.3575 24.17 29.8375 23.43 28.6975 23.43C27.9575 23.43 27.3975 23.84 26.8975 24.34L26.9275 23.22V21.04H26.0175V29ZM34.4317 29.13C35.1717 29.13 35.7517 28.88 36.2317 28.57L35.9017 27.97C35.5017 28.24 35.0717 28.4 34.5417 28.4C33.5117 28.4 32.8017 27.66 32.7417 26.5H36.4017C36.4217 26.37 36.4417 26.18 36.4417 25.98C36.4417 24.43 35.6617 23.43 34.2817 23.43C33.0217 23.43 31.8317 24.53 31.8317 26.29C31.8317 28.08 32.9917 29.13 34.4317 29.13ZM32.7317 25.85C32.8417 24.78 33.5217 24.16 34.2917 24.16C35.1417 24.16 35.6417 24.75 35.6417 25.85H32.7317ZM39.3488 29.13C40.6288 29.13 41.3288 28.4 41.3288 27.52C41.3288 26.49 40.4588 26.17 39.6688 25.87C39.0588 25.64 38.4688 25.45 38.4688 24.93C38.4688 24.51 38.7788 24.15 39.4588 24.15C39.9488 24.15 40.3288 24.35 40.7088 24.63L41.1488 24.04C40.7188 23.71 40.1288 23.43 39.4588 23.43C38.2788 23.43 37.5888 24.11 37.5888 24.97C37.5888 25.89 38.4488 26.26 39.2088 26.54C39.8088 26.77 40.4488 27.02 40.4488 27.57C40.4488 28.04 40.0988 28.42 39.3788 28.42C38.7288 28.42 38.2388 28.16 37.7688 27.78L37.3188 28.38C37.8388 28.81 38.5788 29.13 39.3488 29.13ZM42.7565 29H43.6665V23.57H42.7565V29ZM43.2165 22.45C43.5765 22.45 43.8465 22.2 43.8465 21.86C43.8465 21.49 43.5765 21.27 43.2165 21.27C42.8565 21.27 42.5865 21.49 42.5865 21.86C42.5865 22.2 42.8565 22.45 43.2165 22.45ZM45.6604 29H46.5604V27.57L47.5804 26.38L49.1704 29H50.1604L48.1004 25.75L49.9204 23.57H48.9104L46.5804 26.44H46.5604V21.04H45.6604V29ZM51.9347 29.13C52.2947 29.13 52.5947 28.85 52.5947 28.44C52.5947 28.03 52.2947 27.73 51.9347 27.73C51.5747 27.73 51.2747 28.03 51.2747 28.44C51.2747 28.85 51.5747 29.13 51.9347 29.13ZM54.3979 31.29H55.3079V29.45L55.2879 28.5C55.7779 28.9 56.2979 29.13 56.7879 29.13C58.0379 29.13 59.1479 28.06 59.1479 26.2C59.1479 24.53 58.3879 23.43 56.9879 23.43C56.3579 23.43 55.7479 23.79 55.2579 24.19H55.2279L55.1479 23.57H54.3979V31.29ZM56.6379 28.37C56.2779 28.37 55.7979 28.22 55.3079 27.8V24.95C55.8379 24.46 56.3079 24.2 56.7679 24.2C57.7979 24.2 58.1979 25.01 58.1979 26.21C58.1979 27.56 57.5379 28.37 56.6379 28.37ZM60.7491 29H61.6591V25.51C62.0191 24.58 62.5791 24.26 63.0291 24.26C63.2491 24.26 63.3791 24.28 63.5591 24.35L63.7291 23.55C63.5591 23.46 63.3891 23.43 63.1491 23.43C62.5391 23.43 61.9891 23.87 61.6091 24.56H61.5791L61.4991 23.57H60.7491V29ZM64.7761 29H65.6861V23.57H64.7761V29ZM65.2361 22.45C65.5961 22.45 65.8661 22.2 65.8661 21.86C65.8661 21.49 65.5961 21.27 65.2361 21.27C64.8761 21.27 64.6061 21.49 64.6061 21.86C64.6061 22.2 64.8761 22.45 65.2361 22.45ZM68.85 29H69.91L71.84 23.57H70.94L69.91 26.66C69.75 27.19 69.57 27.75 69.41 28.26H69.37C69.2 27.75 69.03 27.19 68.86 26.66L67.84 23.57H66.89L68.85 29ZM76.6248 30.73C77.3948 30.73 78.0948 30.55 78.7448 30.16L78.5048 29.62C78.0048 29.91 77.3648 30.12 76.6848 30.12C74.7848 30.12 73.3648 28.88 73.3648 26.7C73.3648 24.09 75.2848 22.39 77.2748 22.39C79.3048 22.39 80.3748 23.71 80.3748 25.52C80.3748 26.97 79.5748 27.82 78.8648 27.82C78.2548 27.82 78.0448 27.41 78.2548 26.51L78.6948 24.28H78.0948L77.9648 24.74H77.9448C77.7448 24.37 77.4348 24.19 77.0548 24.19C75.7448 24.19 74.9048 25.6 74.9048 26.78C74.9048 27.8 75.4848 28.37 76.2448 28.37C76.7348 28.37 77.2448 28.03 77.6048 27.6H77.6348C77.7048 28.17 78.1748 28.45 78.7848 28.45C79.7948 28.45 81.0148 27.43 81.0148 25.48C81.0148 23.28 79.5948 21.78 77.3448 21.78C74.8548 21.78 72.6848 23.74 72.6848 26.73C72.6848 29.33 74.4348 30.73 76.6248 30.73ZM76.4248 27.74C75.9748 27.74 75.6348 27.45 75.6348 26.73C75.6348 25.89 76.1748 24.83 77.0548 24.83C77.3548 24.83 77.5648 24.96 77.7748 25.3L77.4548 27.08C77.0748 27.54 76.7348 27.74 76.4248 27.74ZM84.4877 31.5C86.1677 31.5 87.2277 30.63 87.2277 29.62C87.2277 28.73 86.5977 28.33 85.3377 28.33H84.2777C83.5477 28.33 83.3277 28.09 83.3277 27.74C83.3277 27.44 83.4777 27.26 83.6777 27.09C83.9177 27.21 84.2177 27.28 84.4877 27.28C85.5877 27.28 86.4677 26.55 86.4677 25.39C86.4677 24.92 86.2877 24.52 86.0277 24.27H87.1377V23.57H85.2477C85.0577 23.5 84.7877 23.43 84.4877 23.43C83.3877 23.43 82.4477 24.18 82.4477 25.37C82.4477 26.02 82.7977 26.54 83.1577 26.83V26.87C82.8777 27.07 82.5477 27.43 82.5477 27.88C82.5477 28.31 82.7577 28.6 83.0477 28.77V28.81C82.5377 29.14 82.2377 29.58 82.2377 30.04C82.2377 30.98 83.1577 31.5 84.4877 31.5ZM84.4877 26.66C83.8577 26.66 83.3277 26.16 83.3277 25.37C83.3277 24.57 83.8477 24.1 84.4877 24.1C85.1277 24.1 85.6377 24.58 85.6377 25.37C85.6377 26.16 85.1077 26.66 84.4877 26.66ZM84.6177 30.88C83.6277 30.88 83.0377 30.5 83.0377 29.92C83.0377 29.6 83.2077 29.28 83.5977 29C83.8377 29.06 84.0977 29.09 84.2977 29.09H85.2377C85.9577 29.09 86.3477 29.26 86.3477 29.76C86.3477 30.33 85.6577 30.88 84.6177 30.88ZM88.4425 29H89.3525V25.06C89.8525 24.5 90.3125 24.23 90.7225 24.23C91.4125 24.23 91.7325 24.66 91.7325 25.68V29H92.6425V25.06C93.1525 24.5 93.5925 24.23 94.0125 24.23C94.7025 24.23 95.0225 24.66 95.0225 25.68V29H95.9325V25.56C95.9325 24.17 95.4025 23.43 94.2825 23.43C93.6225 23.43 93.0525 23.86 92.4925 24.47C92.2725 23.83 91.8225 23.43 90.9925 23.43C90.3425 23.43 89.7725 23.84 89.3025 24.36H89.2725L89.1925 23.57H88.4425V29ZM99.1003 29.13C99.7703 29.13 100.38 28.78 100.9 28.35H100.93L101.01 29H101.76V25.66C101.76 24.32 101.2 23.43 99.8803 23.43C99.0103 23.43 98.2403 23.82 97.7403 24.14L98.1003 24.77C98.5303 24.48 99.1003 24.19 99.7303 24.19C100.62 24.19 100.85 24.86 100.85 25.56C98.5403 25.82 97.5103 26.41 97.5103 27.59C97.5103 28.57 98.1903 29.13 99.1003 29.13ZM99.3603 28.4C98.8203 28.4 98.4003 28.15 98.4003 27.53C98.4003 26.83 99.0203 26.38 100.85 26.16V27.68C100.32 28.15 99.8903 28.4 99.3603 28.4ZM103.645 29H104.555V23.57H103.645V29ZM104.105 22.45C104.465 22.45 104.735 22.2 104.735 21.86C104.735 21.49 104.465 21.27 104.105 21.27C103.745 21.27 103.475 21.49 103.475 21.86C103.475 22.2 103.745 22.45 104.105 22.45ZM107.509 29.13C107.749 29.13 107.909 29.1 108.039 29.05L107.909 28.35C107.809 28.37 107.769 28.37 107.719 28.37C107.579 28.37 107.459 28.26 107.459 27.98V21.04H106.549V27.92C106.549 28.69 106.829 29.13 107.509 29.13ZM110.02 29.13C110.38 29.13 110.68 28.85 110.68 28.44C110.68 28.03 110.38 27.73 110.02 27.73C109.66 27.73 109.36 28.03 109.36 28.44C109.36 28.85 109.66 29.13 110.02 29.13ZM114.497 29.13C115.147 29.13 115.767 28.88 116.247 28.44L115.857 27.83C115.517 28.14 115.077 28.37 114.577 28.37C113.577 28.37 112.897 27.54 112.897 26.29C112.897 25.04 113.617 24.19 114.597 24.19C115.037 24.19 115.367 24.39 115.687 24.68L116.157 24.07C115.767 23.73 115.277 23.43 114.567 23.43C113.177 23.43 111.947 24.48 111.947 26.29C111.947 28.09 113.057 29.13 114.497 29.13ZM119.46 29.13C120.79 29.13 121.98 28.09 121.98 26.29C121.98 24.48 120.79 23.43 119.46 23.43C118.13 23.43 116.94 24.48 116.94 26.29C116.94 28.09 118.13 29.13 119.46 29.13ZM119.46 28.37C118.52 28.37 117.89 27.54 117.89 26.29C117.89 25.04 118.52 24.19 119.46 24.19C120.4 24.19 121.04 25.04 121.04 26.29C121.04 27.54 120.4 28.37 119.46 28.37ZM123.565 29H124.475V25.06C124.975 24.5 125.435 24.23 125.845 24.23C126.535 24.23 126.855 24.66 126.855 25.68V29H127.765V25.06C128.275 24.5 128.715 24.23 129.135 24.23C129.825 24.23 130.145 24.66 130.145 25.68V29H131.055V25.56C131.055 24.17 130.525 23.43 129.405 23.43C128.745 23.43 128.175 23.86 127.615 24.47C127.395 23.83 126.945 23.43 126.115 23.43C125.465 23.43 124.895 23.84 124.425 24.36H124.395L124.315 23.57H123.565V29Z" fill="#B9B9B9"/>
<rect x="30" y="7" width="96" height="8" fill="#3AD29F" fill-opacity="0.6"/>
<path d="M39.3094 3.73V12.79H40.3494V3.73H39.3094ZM33.3994 4.48V10.64H37.7394V4.48H36.7094V6.78H34.4194V4.48H33.3994ZM34.4194 7.6H36.7094V9.81H34.4194V7.6ZM43.0386 9.33C44.4986 9.05 45.7686 8.2 46.3486 7.03C46.9386 8.19 48.2186 9.01 49.6986 9.29L50.1186 8.47C48.3286 8.2 46.8886 6.98 46.8886 5.62V5.41H49.7586V4.57H42.9386V5.41H45.8086V5.62C45.8086 6.98 44.3786 8.22 42.6186 8.51L43.0386 9.33ZM42.2686 10.79V11.63H50.4486V10.79H42.2686ZM53.1678 4.62H52.1478V10.49H52.9178C54.3178 10.49 55.7778 10.38 57.3278 10.06L57.2178 9.2C55.7978 9.49 54.4478 9.6 53.1678 9.61V4.62ZM58.0478 3.74V12.77H59.0778V3.74H58.0478ZM68.797 8.15C67.017 7.83 65.567 6.44 65.567 5V4.32H64.477V5C64.477 6.43 63.027 7.82 61.247 8.15L61.687 9C63.157 8.7 64.427 7.76 65.017 6.52C65.607 7.76 66.877 8.7 68.347 9L68.797 8.15ZM60.967 10.76V11.61H69.147V10.76H60.967ZM80.1523 3.73H79.1123V8.89H80.1523V3.73ZM76.4523 7.23H74.1823V5.12H76.4523V7.23ZM77.4523 4.3H73.1723V8.05H77.4523V4.3ZM80.3223 10.24V9.45H77.7323V8.64H76.6823V9.45H74.0923V10.24H76.6823C76.6023 11.01 75.4323 11.8 73.7423 11.97L74.0823 12.75C75.5223 12.58 76.6623 12.01 77.2123 11.22C77.7623 12 78.8823 12.58 80.3123 12.75L80.6523 11.97C78.9823 11.79 77.8223 10.98 77.7423 10.24H80.3223ZM84.9677 4.69V5.53H88.1877C88.0077 7.61 86.8877 9.2 84.5177 10.34L85.0677 11.16C88.1677 9.66 89.2477 7.38 89.2477 4.69H84.9677ZM90.8777 3.74V12.77H91.9077V3.74H90.8777ZM95.2069 7.88H98.2269V7.05H95.2069V5.37H98.3969V4.52H94.1769V10.66H94.9069C96.5269 10.66 97.7269 10.61 99.1169 10.39L99.0169 9.55C97.7469 9.76 96.6469 9.81 95.2069 9.82V7.88ZM102.207 7.28H100.797V3.73H99.7669V12.78H100.797V8.13H102.207V7.28ZM111.662 6.58H107.592V4.96H111.662V6.58ZM112.672 4.14H106.582V7.4H112.672V4.14ZM107.572 9.99H106.542V12.6H112.822V11.76H107.572V9.99ZM105.542 8.29V9.12H109.202V10.81H110.232V9.12H113.732V8.29H105.542ZM117.811 4.37C116.401 4.37 115.361 5.26 115.361 6.54C115.361 7.82 116.401 8.71 117.811 8.71C119.221 8.71 120.271 7.82 120.271 6.54C120.271 5.26 119.221 4.37 117.811 4.37ZM117.811 5.25C118.651 5.25 119.261 5.75 119.261 6.54C119.261 7.32 118.651 7.83 117.811 7.83C116.981 7.83 116.371 7.32 116.371 6.54C116.371 5.75 116.981 5.25 117.811 5.25ZM121.291 3.73V12.78H122.331V3.73H121.291ZM115.071 10.87C116.671 10.87 118.831 10.85 120.821 10.47L120.751 9.72C118.811 10.01 116.561 10.02 114.941 10.02L115.071 10.87Z" fill="#555555"/>
</svg>
