<svg width="191" height="150" viewBox="0 0 191 150" fill="none" xmlns="http://www.w3.org/2000/svg">
<g clip-path="url(#clip0_1246_1092)">
<path d="M120.654 145.644H127.003V149.641H116.656C116.656 149.116 116.76 148.597 116.961 148.112C117.161 147.627 117.456 147.186 117.827 146.815C118.198 146.443 118.639 146.149 119.124 145.948C119.609 145.747 120.129 145.644 120.654 145.644Z" fill="#2F2E41"/>
<path d="M172.971 0.0980225H0.0737305V110.829H172.971V0.0980225Z" fill="#E6E6E6"/>
<path d="M168.027 13.9865H5.01758V104.278H168.027V13.9865Z" fill="white"/>
<path d="M172.897 0H0V7.3453H172.897V0Z" fill="#3AD29F"/>
<path d="M5.45856 5.11671C6.21044 5.11671 6.81996 4.50719 6.81996 3.75532C6.81996 3.00344 6.21044 2.39392 5.45856 2.39392C4.70669 2.39392 4.09717 3.00344 4.09717 3.75532C4.09717 4.50719 4.70669 5.11671 5.45856 5.11671Z" fill="white"/>
<path d="M10.626 5.11671C11.3779 5.11671 11.9874 4.50719 11.9874 3.75532C11.9874 3.00344 11.3779 2.39392 10.626 2.39392C9.87416 2.39392 9.26465 3.00344 9.26465 3.75532C9.26465 4.50719 9.87416 5.11671 10.626 5.11671Z" fill="white"/>
<path d="M15.7935 5.11671C16.5454 5.11671 17.1549 4.50719 17.1549 3.75532C17.1549 3.00344 16.5454 2.39392 15.7935 2.39392C15.0416 2.39392 14.4321 3.00344 14.4321 3.75532C14.4321 4.50719 15.0416 5.11671 15.7935 5.11671Z" fill="white"/>
<path d="M61.7153 23.355H19.8296V94.9097H61.7153V23.355Z" fill="#E6E6E6"/>
<path d="M103.85 23.355H68.9453V43.0512H103.85V23.355Z" fill="#3AD29F"/>
<path d="M103.85 48.5363H68.9453V69.7284H103.85V48.5363Z" fill="#E6E6E6"/>
<path d="M103.85 75.2134H68.9453V94.9096H103.85V75.2134Z" fill="#E6E6E6"/>
<path d="M153.215 23.355H111.33V54.5381H153.215V23.355Z" fill="#E6E6E6"/>
<path d="M153.215 63.7266H111.33V94.9097H153.215V63.7266Z" fill="#E6E6E6"/>
<path d="M137.08 56.7783V50.065C137.08 47.6792 138.027 45.3911 139.714 43.704C141.401 42.017 143.69 41.0692 146.075 41.0692C148.461 41.0692 150.749 42.017 152.436 43.704C154.123 45.3911 155.071 47.6792 155.071 50.065V56.7783C155.071 57.0987 154.943 57.4058 154.717 57.6324C154.49 57.8589 154.183 57.9863 153.863 57.9867H138.288C137.968 57.9863 137.66 57.8589 137.434 57.6324C137.207 57.4058 137.08 57.0987 137.08 56.7783Z" fill="#2F2E41"/>
<path d="M159.377 144.144L156.204 145.022L151.307 133.202L155.99 131.906L159.377 144.144Z" fill="#FFB8B8"/>
<path d="M153.687 144.743L159.806 143.049L160.873 146.902L150.901 149.662C150.761 149.156 150.722 148.627 150.786 148.106C150.85 147.585 151.016 147.082 151.275 146.625C151.534 146.168 151.88 145.767 152.294 145.444C152.708 145.121 153.181 144.883 153.687 144.743Z" fill="#2F2E41"/>
<path d="M126.298 146.585H123.006L121.439 133.886H126.299L126.298 146.585Z" fill="#FFB8B8"/>
<path d="M122.328 75.6179C122.563 75.9351 122.865 76.197 123.212 76.385C123.559 76.573 123.943 76.6826 124.337 76.7061C124.731 76.7295 125.126 76.6663 125.493 76.5209C125.86 76.3755 126.19 76.1513 126.461 75.8643L135.213 79.8004L134.417 74.8778L126.228 71.8947C125.716 71.4714 125.066 71.2507 124.402 71.2746C123.738 71.2984 123.105 71.5651 122.624 72.024C122.144 72.4829 121.848 73.1023 121.793 73.7647C121.739 74.427 121.929 75.0865 122.328 75.6179H122.328Z" fill="#FFB8B8"/>
<path d="M140.512 105.22C137.762 105.22 134.916 104.811 132.523 103.593C131.253 102.959 130.128 102.07 129.217 100.981C128.306 99.8918 127.63 98.6267 127.231 97.2646C125.984 93.3174 127.556 89.4395 129.076 85.6895C130.018 83.3657 130.907 81.1709 131.138 79.0074L131.219 78.2393C131.578 74.7893 131.889 71.8098 133.608 70.6923C134.499 70.113 135.697 70.0799 137.271 70.591L152.052 75.3927L151.509 103.452L151.419 103.482C151.342 103.508 146.131 105.22 140.512 105.22Z" fill="#2F2E41"/>
<path d="M137.012 61.8557C137.012 61.8557 144.263 59.7074 149.902 60.513C149.902 60.513 146.68 78.2361 147.754 84.1438C148.828 90.0515 129.091 86.4263 133.119 80.7872L134.461 74.0739C134.461 74.0739 131.776 71.3886 134.193 68.1662L137.012 61.8557Z" fill="#3AD29F"/>
<path d="M133.446 104.688L124.51 103.013L127.63 79.0044C127.84 78.3341 132.672 63.1226 134.867 62.2996C136.461 61.7383 138.091 61.2856 139.746 60.9443L140.063 60.8807L138.272 63.5684L131.138 80.6616L133.446 104.688Z" fill="#2F2E41"/>
<path d="M128.79 143.642L117.245 141.718L123.724 115.262L133.365 79.0803L133.46 79.7228C133.468 79.7707 134.368 84.4972 147.733 82.4L147.85 82.3816L147.883 82.4961L164.035 139.569L150.88 141.762L138.881 100.121L128.79 143.642Z" fill="#2F2E41"/>
<path d="M144.792 109.181L144.8 108.978C144.808 108.753 145.602 86.3215 145.337 77.3003C145.071 68.2483 148.001 60.4094 148.031 60.3313L148.055 60.2683L148.119 60.2497C151.911 59.1665 155.2 62.3994 155.233 62.4322L155.279 62.4783L154.199 71.3872L158.822 103.783L144.792 109.181Z" fill="#2F2E41"/>
<path d="M144.227 57.8305C147.869 57.8305 150.822 54.8776 150.822 51.2351C150.822 47.5925 147.869 44.6396 144.227 44.6396C140.584 44.6396 137.631 47.5925 137.631 51.2351C137.631 54.8776 140.584 57.8305 144.227 57.8305Z" fill="#FFB8B8"/>
<path d="M134.951 50.602C134.953 48.7154 135.704 46.9066 137.038 45.5726C138.372 44.2385 140.181 43.4881 142.067 43.486H143.41C145.297 43.4881 147.105 44.2385 148.439 45.5726C149.773 46.9066 150.524 48.7154 150.526 50.602V50.7363H147.689L146.721 48.0263L146.527 50.7363H145.061L144.572 49.369L144.475 50.7363H134.951V50.602Z" fill="#2F2E41"/>
<path d="M143.578 58.7416C143.444 58.5612 143.365 58.3469 143.348 58.1233C143.331 57.8996 143.378 57.6758 143.483 57.4776C144.906 54.7713 146.898 49.7707 144.254 46.6868L144.064 46.4652H151.74V57.9906L144.767 59.221C144.696 59.2335 144.624 59.2398 144.553 59.2398C144.362 59.2398 144.175 59.1947 144.005 59.1081C143.836 59.0214 143.689 58.8959 143.578 58.7416Z" fill="#2F2E41"/>
<path d="M112.67 11.1565C107.299 6.62378 100.725 3.75009 93.7502 2.88512C86.7751 2.02016 79.6989 3.2012 73.3828 6.28455C67.0666 9.36789 61.7828 14.2206 58.1744 20.2521C54.5659 26.2837 52.7883 33.2341 53.0579 40.2574C53.3276 47.2808 55.6328 54.0745 59.6931 59.8116C63.7533 65.5488 69.3936 69.9821 75.9276 72.5721C82.4615 75.1621 89.6074 75.7972 96.4957 74.4C103.384 73.0028 109.718 69.6336 114.726 64.7024L159.2 102.229C159.876 102.801 160.753 103.081 161.636 103.007C162.519 102.933 163.336 102.511 163.908 101.835C164.48 101.158 164.76 100.282 164.686 99.3988C164.612 98.5158 164.191 97.6983 163.514 97.1262L163.509 97.1221L119.035 59.5954C124.202 52.1804 126.413 43.1034 125.236 34.1431C124.058 25.1827 119.577 16.985 112.67 11.1565ZM109.803 55.9818C106.339 60.0879 101.734 63.0744 96.5722 64.5636C91.4102 66.0528 85.9225 65.9779 80.8031 64.3482C75.6837 62.7186 71.1625 59.6075 67.8112 55.4083C64.4599 51.2091 62.4291 46.1105 61.9756 40.7571C61.5221 35.4038 62.6662 30.0361 65.2632 25.333C67.8603 20.6299 71.7937 16.8025 76.566 14.3348C81.3383 11.8672 86.7351 10.8701 92.0741 11.4697C97.4131 12.0692 102.454 14.2385 106.56 17.7032H106.56C109.287 20.0037 111.533 22.8187 113.172 25.9873C114.81 29.156 115.809 32.6164 116.11 36.1709C116.411 39.7254 116.009 43.3044 114.927 46.7036C113.845 50.1027 112.104 53.2555 109.803 55.9818Z" fill="#3F3D56"/>
<path opacity="0.3" d="M71.5249 59.2248C66.3138 54.8273 62.947 48.6308 62.093 41.8658C61.2391 35.1008 62.9605 28.2621 66.9154 22.7075C66.396 23.2306 65.8939 23.7784 65.4091 24.3509C63.1086 27.0772 61.3677 30.23 60.2856 33.6292C59.2036 37.0283 58.8017 40.6073 59.1028 44.1618C59.404 47.7163 60.4023 51.1767 62.0407 54.3454C63.6792 57.5141 65.9257 60.329 68.652 62.6295C71.3784 64.93 74.5311 66.6709 77.9303 67.753C81.3295 68.835 84.9085 69.2369 88.463 68.9358C92.0175 68.6347 95.4778 67.6364 98.6465 65.9979C101.815 64.3595 104.63 62.1129 106.931 59.3866C107.414 58.8133 107.87 58.2262 108.297 57.6253C103.487 62.4583 97.0355 65.3056 90.2232 65.6019C83.411 65.8983 76.7365 63.6219 71.5249 59.2248Z" fill="black"/>
<path d="M146.344 87.1481C146.728 87.2418 147.127 87.2503 147.514 87.1731C147.901 87.0958 148.267 86.9346 148.585 86.7007C148.903 86.4669 149.166 86.1662 149.355 85.8198C149.544 85.4734 149.655 85.0897 149.68 84.6957L158.927 82.1292L155.168 78.8522L146.964 81.7918C146.299 81.7937 145.658 82.0394 145.163 82.4823C144.667 82.9251 144.351 83.5344 144.275 84.1947C144.198 84.8549 144.367 85.5202 144.748 86.0646C145.13 86.6089 145.697 86.9944 146.344 87.1481Z" fill="#FFB8B8"/>
<path d="M150.188 85.7897L149.625 80.4442L157.349 76.1829L152.313 70.0871L153.135 63.2397L155.181 62.3628L155.244 62.4446C156.209 63.6853 164.671 74.6039 164.671 75.9537C164.671 77.34 163.052 81.4111 160.838 82.5185C158.701 83.5867 150.679 85.6629 150.338 85.7509L150.188 85.7897Z" fill="#2F2E41"/>
<path d="M190.263 150H87.9526C87.8814 150 87.8131 149.972 87.7627 149.921C87.7124 149.871 87.6841 149.803 87.6841 149.731C87.6841 149.66 87.7124 149.592 87.7627 149.542C87.8131 149.491 87.8814 149.463 87.9526 149.463H190.263C190.334 149.463 190.403 149.491 190.453 149.542C190.503 149.592 190.532 149.66 190.532 149.731C190.532 149.803 190.503 149.871 190.453 149.921C190.403 149.972 190.334 150 190.263 150Z" fill="#CCCCCC"/>
</g>
<defs>
<clipPath id="clip0_1246_1092">
<rect width="190.532" height="150" fill="white"/>
</clipPath>
</defs>
</svg>
