<svg width="260" height="150" viewBox="0 0 260 150" fill="none" xmlns="http://www.w3.org/2000/svg">
<path d="M133.169 127.4C132.497 127.4 131.818 127.389 131.152 127.368L131.167 126.884C132.124 126.914 133.1 126.922 134.061 126.909L134.068 127.393C133.769 127.398 133.469 127.4 133.169 127.4ZM136.983 127.287L136.954 126.804C137.912 126.747 138.883 126.668 139.839 126.568L139.889 127.049C138.926 127.15 137.948 127.231 136.983 127.287ZM128.24 127.212C127.274 127.138 126.297 127.041 125.338 126.923L125.397 126.442C126.349 126.559 127.318 126.656 128.277 126.729L128.24 127.212ZM142.782 126.679L142.709 126.2C143.661 126.056 144.621 125.888 145.56 125.702L145.654 126.177C144.708 126.365 143.741 126.534 142.782 126.679ZM122.452 126.502C121.498 126.34 120.534 126.154 119.589 125.949L119.691 125.475C120.63 125.679 121.586 125.864 122.533 126.024L122.452 126.502ZM148.501 125.542L148.385 125.072C149.319 124.841 150.259 124.586 151.178 124.313L151.315 124.778C150.389 125.052 149.443 125.31 148.501 125.542ZM116.754 125.265C115.818 125.016 114.875 124.742 113.953 124.45L114.099 123.988C115.014 124.278 115.949 124.549 116.878 124.796L116.754 125.265ZM154.092 123.884L153.933 123.426C154.84 123.111 155.752 122.77 156.644 122.413L156.824 122.863C155.925 123.223 155.006 123.566 154.092 123.884ZM111.186 123.504C110.277 123.17 109.362 122.81 108.467 122.433L108.655 121.986C109.543 122.36 110.451 122.718 111.353 123.05L111.186 123.504ZM159.5 121.72L159.299 121.279C160.17 120.883 161.046 120.461 161.901 120.024L162.122 120.455C161.259 120.896 160.377 121.321 159.5 121.72ZM105.801 121.237C104.926 120.82 104.049 120.377 103.193 119.92L103.421 119.493C104.271 119.947 105.141 120.386 106.009 120.8L105.801 121.237ZM164.683 119.071L164.443 118.65C165.278 118.173 166.112 117.672 166.92 117.161L167.179 117.57C166.364 118.086 165.524 118.591 164.683 119.071ZM100.65 118.485C99.8181 117.99 98.9856 117.469 98.1751 116.935L98.4417 116.53C99.2459 117.06 100.072 117.578 100.897 118.069L100.65 118.485ZM169.605 115.956L169.328 115.56C170.114 115.01 170.899 114.435 171.66 113.849L171.956 114.234C171.189 114.823 170.398 115.403 169.605 115.956ZM95.7748 115.274C94.993 114.706 94.212 114.111 93.4533 113.506L93.7556 113.127C94.5084 113.728 95.2835 114.319 96.0594 114.882L95.7748 115.274ZM174.226 112.405L173.913 112.035C174.646 111.416 175.376 110.772 176.082 110.119L176.411 110.475C175.699 111.132 174.964 111.782 174.226 112.405ZM91.2153 111.634C90.4871 110.996 89.7637 110.333 89.0652 109.662L89.4006 109.313C90.0939 109.978 90.8118 110.636 91.5343 111.269L91.2153 111.634ZM178.506 108.446L178.161 108.106C178.837 107.421 179.505 106.712 180.148 106L180.508 106.324C179.86 107.042 179.187 107.756 178.506 108.446ZM87.0077 107.595C86.3396 106.893 85.6798 106.167 85.0466 105.437L85.4125 105.12C86.0409 105.844 86.6956 106.564 87.3587 107.261L87.0077 107.595ZM182.41 104.113L182.036 103.805C182.647 103.062 183.248 102.296 183.823 101.526L184.211 101.816C183.631 102.591 183.026 103.364 182.41 104.113ZM83.1862 103.193C82.5863 102.435 81.9955 101.652 81.4304 100.867L81.8235 100.584C82.3844 101.363 82.9706 102.14 83.5661 102.893L83.1862 103.193ZM185.905 99.4394L185.504 99.1674C186.045 98.372 186.574 97.5534 187.077 96.7338L187.49 96.9874C186.982 97.8131 186.449 98.6381 185.905 99.4394ZM79.7829 98.4635C79.2551 97.6544 78.7385 96.8218 78.2474 95.9883L78.6646 95.7423C79.1521 96.5694 79.6648 97.3958 80.1886 98.1986L79.7829 98.4635ZM188.961 94.4645L188.537 94.2304C189.002 93.3888 189.454 92.5245 189.88 91.6614L190.314 91.8762C189.885 92.7457 189.429 93.6166 188.961 94.4645ZM76.8269 93.4461C76.3752 92.5922 75.9371 91.7161 75.525 90.8423L75.963 90.6356C76.3721 91.5027 76.8067 92.3722 77.255 93.2195L76.8269 93.4461ZM191.547 89.2278L191.104 89.0334C191.49 88.1519 191.86 87.249 192.206 86.3502L192.658 86.5238C192.31 87.4297 191.936 88.3394 191.547 89.2278ZM74.3441 88.1826C73.9727 87.2914 73.6171 86.3795 73.2872 85.4722L73.7425 85.3067C74.0698 86.2071 74.4227 87.1118 74.7911 87.9962L74.3441 88.1826ZM193.642 83.7706L193.182 83.6183C193.485 82.7075 193.77 81.7765 194.03 80.8509L194.497 80.982C194.234 81.9146 193.947 82.8529 193.642 83.7706ZM72.3541 82.7091C72.0659 81.7859 71.795 80.8429 71.5492 79.9058L72.0177 79.7828C72.2617 80.7128 72.5305 81.6487 72.8165 82.5648L72.3541 82.7091ZM195.221 78.1569L194.749 78.0471C194.966 77.1136 195.164 76.1601 195.339 75.2138L195.815 75.3013C195.639 76.2552 195.44 77.2157 195.221 78.1569ZM70.8746 77.0684C70.6726 76.1223 70.4897 75.1584 70.3313 74.2031L70.8091 74.1236C70.9665 75.0718 71.1479 76.0284 71.3483 76.9671L70.8746 77.0684ZM196.277 72.422L195.796 72.3563C195.927 71.4076 196.037 70.4401 196.124 69.4808L196.606 69.5243C196.519 70.4912 196.408 71.466 196.277 72.422V72.422ZM69.9199 71.316C69.8057 70.3571 69.7119 69.3805 69.6411 68.4133L70.1243 68.3779C70.1944 69.3379 70.2876 70.307 70.401 71.2588L69.9199 71.316ZM196.803 66.615L196.319 66.5933C196.362 65.6334 196.384 64.6599 196.384 63.6998H196.869C196.869 64.6672 196.847 65.6481 196.803 66.615L196.803 66.615ZM69.4943 65.5005C69.4778 64.9066 69.4694 64.3006 69.4692 63.6998C69.4692 63.327 69.4724 62.955 69.4788 62.5836L69.9632 62.5922C69.9568 62.9607 69.9536 63.3299 69.9536 63.6998C69.9538 64.2961 69.9622 64.8976 69.9785 65.4873L69.4943 65.5005ZM196.381 63.0241C196.371 62.0636 196.339 61.0902 196.286 60.1306L196.769 60.1036C196.823 61.0706 196.855 62.0513 196.865 63.0189L196.381 63.0241ZM70.0782 59.7003L69.5947 59.67C69.6552 58.7021 69.7387 57.7245 69.8426 56.7644L70.3242 56.8165C70.2209 57.7695 70.1383 58.7396 70.0782 59.7003ZM196.059 57.2456C195.962 56.2906 195.842 55.3244 195.701 54.3735L196.181 54.3028C196.322 55.2609 196.443 56.2344 196.541 57.1966L196.059 57.2456ZM70.7013 53.9472L70.2226 53.8731C70.371 52.9149 70.5434 51.949 70.7351 51.0021L71.2099 51.0981C71.0197 52.0378 70.8486 52.9963 70.7013 53.9472ZM195.212 51.5214C195.028 50.5764 194.819 49.6252 194.593 48.6943L195.063 48.5798C195.292 49.5178 195.502 50.4764 195.688 51.4284L195.212 51.5214ZM71.8487 48.2755L71.3788 48.1577C71.6141 47.2195 71.8746 46.2735 72.1532 45.3458L72.6171 45.4852C72.3407 46.4057 72.0822 47.3445 71.8487 48.2755ZM193.843 45.8986C193.573 44.9763 193.278 44.0485 192.966 43.1407L193.424 42.9832C193.739 43.8979 194.036 44.833 194.308 45.7624L193.843 45.8986ZM73.5162 42.7257L73.0593 42.5651C73.3812 41.6494 73.7288 40.7293 74.0923 39.8304L74.5415 40.012C74.1806 40.904 73.8357 41.8171 73.5162 42.7257ZM191.962 40.4261C191.609 39.5346 191.231 38.6399 190.837 37.7668L191.279 37.5678C191.675 38.4477 192.057 39.3493 192.413 40.2475L191.962 40.4261ZM75.6904 37.3494L75.2502 37.1472C75.6548 36.2661 76.0854 35.3826 76.5301 34.5211L76.9606 34.7432C76.5192 35.5982 76.0919 36.475 75.6904 37.3494ZM189.592 35.1609C189.158 34.3058 188.699 33.4488 188.226 32.6143L188.648 32.3756C189.124 33.2167 189.587 34.0801 190.024 34.9419L189.592 35.1609ZM78.3491 32.1989L77.9293 31.9572C78.4125 31.1181 78.9221 30.2782 79.444 29.461L79.8522 29.7216C79.3344 30.5327 78.8285 31.3662 78.3491 32.1989ZM186.746 30.1317C186.234 29.3168 185.698 28.5051 185.153 27.7188L185.551 27.4428C186.1 28.2351 186.64 29.053 187.156 29.8741L186.746 30.1317ZM81.467 27.3164L81.0711 27.0373C81.6295 26.2453 82.2134 25.4559 82.8068 24.6909L83.1895 24.9878C82.6007 25.747 82.0211 26.5304 81.467 27.3164ZM183.451 25.3806C182.867 24.6161 182.259 23.856 181.643 23.1216L182.015 22.8104C182.635 23.5505 183.247 24.3163 183.836 25.0867L183.451 25.3806ZM85.0161 22.7409L84.6474 22.4268C85.274 21.6907 85.9272 20.958 86.5887 20.2492L86.9427 20.5796C86.2864 21.2831 85.6382 22.0104 85.0161 22.7409ZM179.735 20.9466C179.084 20.2383 178.409 19.5363 177.729 18.8603L178.071 18.5166C178.756 19.1979 179.436 19.9051 180.092 20.6187L179.735 20.9466ZM88.9652 18.509L88.6265 18.1627C89.3191 17.4851 90.0359 16.8151 90.7568 16.1715L91.0794 16.5329C90.364 17.1716 89.6527 17.8365 88.9652 18.509V18.509ZM175.63 16.8669C174.917 16.2201 174.181 15.5822 173.442 14.9709L173.751 14.5977C174.495 15.2136 175.237 15.8564 175.956 16.5081L175.63 16.8669ZM93.2809 14.6552L92.975 14.2795C93.7242 13.6694 94.4985 13.0677 95.2765 12.491L95.565 12.8801C94.7929 13.4525 94.0244 14.0496 93.2809 14.6552V14.6552ZM171.169 13.176C170.4 12.5966 169.608 12.0281 168.816 11.4864L169.09 11.0867C169.888 11.6324 170.685 12.2052 171.461 12.7891L171.169 13.176ZM97.9269 11.2117L97.6565 10.8098C98.4584 10.2703 99.2838 9.74199 100.11 9.23925L100.362 9.65318C99.5419 10.152 98.7227 10.6764 97.9269 11.2117V11.2117ZM166.388 9.90591C165.57 9.39926 164.729 8.90539 163.89 8.43777L164.125 8.01462C164.971 8.48579 165.818 8.98356 166.643 9.49387L166.388 9.90591ZM102.865 8.208L102.632 7.78296C103.481 7.31877 104.35 6.86842 105.218 6.44421L105.43 6.87942C104.57 7.30032 103.707 7.74724 102.865 8.208ZM161.326 7.08567C160.464 6.65624 159.581 6.24139 158.702 5.85265L158.897 5.40963C159.784 5.80133 160.673 6.21939 161.542 6.65212L161.326 7.08567ZM108.053 5.67017L107.861 5.22573C108.747 4.84149 109.654 4.47298 110.556 4.13037L110.728 4.58332C109.833 4.92321 108.933 5.28889 108.053 5.67017H108.053ZM156.022 4.74144C155.125 4.39364 154.208 4.06178 153.294 3.75524L153.448 3.2959C154.369 3.60493 155.294 3.93926 156.197 4.28991L156.022 4.74144ZM113.457 3.61841L113.306 3.15813C114.226 2.85632 115.166 2.57213 116.097 2.31372L116.227 2.78039C115.302 3.03691 114.37 3.31885 113.457 3.61841ZM150.529 2.89818C149.605 2.63481 148.663 2.38953 147.729 2.1692L147.84 1.6978C148.782 1.91978 149.731 2.16695 150.662 2.43222L150.529 2.89818ZM119.033 2.07092L118.925 1.59869C119.869 1.3831 120.83 1.18666 121.782 1.01494L121.868 1.49155C120.923 1.66208 119.969 1.85698 119.033 2.07092ZM144.897 1.57031C143.954 1.39326 142.993 1.23574 142.041 1.1021L142.108 0.622427C143.068 0.757129 144.036 0.915836 144.986 1.09418L144.897 1.57031ZM124.727 1.04321L124.663 0.563055C125.622 0.435093 126.597 0.327473 127.562 0.243506L127.604 0.726023C126.647 0.809518 125.679 0.916196 124.727 1.04321V1.04321ZM139.167 0.765286C138.213 0.675407 137.241 0.606102 136.28 0.559625L136.304 0.0757C137.272 0.122651 138.251 0.192426 139.212 0.283028L139.167 0.765286ZM130.492 0.54023L130.472 0.0562937C131.362 0.0191588 132.27 0.000237361 133.169 0L133.388 0.000358488L133.387 0.484768L133.169 0.484409C132.276 0.484649 131.376 0.503452 130.492 0.540234V0.54023Z" fill="#3F3D56"/>
<path d="M195.217 116.566C194.642 116.566 194.08 116.396 193.602 116.076C193.124 115.757 192.752 115.303 192.532 114.772C192.312 114.241 192.254 113.656 192.366 113.093C192.479 112.529 192.755 112.011 193.162 111.604C193.568 111.198 194.086 110.921 194.65 110.809C195.214 110.697 195.798 110.754 196.329 110.974C196.86 111.194 197.314 111.567 197.634 112.045C197.953 112.523 198.123 113.085 198.123 113.66C198.123 114.43 197.816 115.169 197.271 115.714C196.726 116.259 195.988 116.565 195.217 116.566ZM195.217 111.238C194.738 111.238 194.27 111.38 193.871 111.646C193.473 111.912 193.163 112.29 192.979 112.733C192.796 113.175 192.748 113.662 192.841 114.132C192.935 114.602 193.166 115.034 193.504 115.372C193.843 115.711 194.275 115.942 194.744 116.035C195.214 116.129 195.701 116.081 196.144 115.897C196.586 115.714 196.965 115.404 197.231 115.005C197.497 114.607 197.639 114.139 197.639 113.66C197.638 113.017 197.383 112.402 196.929 111.948C196.475 111.494 195.859 111.238 195.217 111.238Z" fill="#2F2E41"/>
<path d="M117.905 42.0006V57.9086C117.905 58.0555 117.846 58.1964 117.743 58.3003C117.639 58.4043 117.498 58.4628 117.351 58.4632H116.956V141.334C116.956 143.627 116.045 145.826 114.423 147.448C112.802 149.069 110.603 149.98 108.309 149.98H56.5284C55.393 149.98 54.2688 149.756 53.2199 149.322C52.171 148.887 51.218 148.25 50.4153 147.447C49.6126 146.644 48.9759 145.691 48.5416 144.642C48.1073 143.593 47.8839 142.469 47.8841 141.334V61.3697H47.5983C47.4946 61.3698 47.395 61.3289 47.3215 61.2558C47.248 61.1827 47.2064 61.0834 47.2059 60.9797V51.9261C47.2059 51.8746 47.216 51.8236 47.2357 51.7759C47.2555 51.7283 47.2844 51.6851 47.3208 51.6486C47.3572 51.6122 47.4005 51.5833 47.4481 51.5636C47.4957 51.5439 47.5467 51.5337 47.5983 51.5337H47.8841V48.1235H47.5958C47.487 48.1231 47.3828 48.0795 47.306 48.0023C47.2293 47.9251 47.1863 47.8206 47.1865 47.7118V38.7817C47.1868 38.6732 47.23 38.5692 47.3067 38.4925C47.3834 38.4158 47.4874 38.3726 47.5958 38.3723H47.8841V33.7172H47.591C47.5433 33.7172 47.496 33.7079 47.4519 33.6896C47.4078 33.6714 47.3677 33.6446 47.3339 33.6109C47.3002 33.5772 47.2734 33.5371 47.2552 33.493C47.237 33.4489 47.2276 33.4016 47.2277 33.3539V28.4807C47.2275 28.3841 47.2656 28.2913 47.3337 28.2227C47.4018 28.1541 47.4943 28.1154 47.591 28.115H47.8841V18.2476C47.8842 15.955 48.7949 13.7563 50.416 12.1352C52.0371 10.5141 54.2358 9.60335 56.5284 9.60327H108.309C110.602 9.60326 112.801 10.5139 114.423 12.135C116.044 13.756 116.955 15.9547 116.956 18.2476V41.4459H117.351C117.498 41.4463 117.639 41.5049 117.743 41.6088C117.846 41.7127 117.905 41.8536 117.905 42.0006Z" fill="#3F3D56"/>
<path d="M84.914 14.0372H76.4999C76.1599 14.0372 75.8843 14.3129 75.8843 14.6529V15.3801C75.8843 15.7202 76.1599 15.9958 76.4999 15.9958H84.914C85.2541 15.9958 85.5297 15.7202 85.5297 15.3801V14.6529C85.5297 14.3129 85.2541 14.0372 84.914 14.0372Z" fill="#E6E8EC"/>
<path d="M88.0992 16.1275C88.7127 16.1275 89.2101 15.6301 89.2101 15.0165C89.2101 14.403 88.7127 13.9056 88.0992 13.9056C87.4856 13.9056 86.9883 14.403 86.9883 15.0165C86.9883 15.6301 87.4856 16.1275 88.0992 16.1275Z" fill="#E6E8EC"/>
<path d="M112.816 19.9574V142.05C112.815 143.505 112.237 144.9 111.208 145.928C110.179 146.956 108.785 147.534 107.33 147.534H57.7628C57.0422 147.535 56.3285 147.394 55.6625 147.119C54.9965 146.844 54.3913 146.44 53.8817 145.931C53.3721 145.421 52.968 144.816 52.6926 144.15C52.4172 143.485 52.2759 142.771 52.2769 142.05V19.9574C52.2768 19.2369 52.4187 18.5236 52.6944 17.858C52.9701 17.1924 53.3742 16.5876 53.8836 16.0782C54.393 15.5687 54.9978 15.1647 55.6634 14.889C56.329 14.6133 57.0424 14.4714 57.7628 14.4714H65.1815V15.4233C65.1815 16.6213 65.6574 17.7703 66.5046 18.6174C67.3517 19.4645 68.5006 19.9404 69.6986 19.9404H94.9073C96.1053 19.9404 97.2542 19.4645 98.1014 18.6174C98.9485 17.7703 99.4244 16.6213 99.4244 15.4233V14.4714H107.33C108.05 14.4712 108.764 14.6129 109.43 14.8885C110.095 15.1642 110.7 15.5682 111.21 16.0777C111.719 16.5872 112.123 17.192 112.399 17.8577C112.674 18.5234 112.816 19.2369 112.816 19.9574Z" fill="#3AD29F"/>
<path opacity="0.2" d="M110.888 54.496H54.6968V81.8651H110.888V54.496Z" fill="black"/>
<path d="M199.05 23.2517H142.858V50.6208H199.05V23.2517Z" fill="#F2F2F2"/>
<path d="M110.888 95.9807H54.6968V123.35H110.888V95.9807Z" fill="#3F3D56"/>
<path d="M105.075 34.2186C107.75 34.2186 109.919 32.0498 109.919 29.3745C109.919 26.6992 107.75 24.5304 105.075 24.5304C102.4 24.5304 100.231 26.6992 100.231 29.3745C100.231 32.0498 102.4 34.2186 105.075 34.2186Z" fill="white"/>
<path d="M107.255 29.2187H105.23V27.1946H104.919V29.2187H102.895V29.5302H104.919V31.5543H105.23V29.5302H107.255V29.2187Z" fill="#3F3D56"/>
<path d="M192.753 19.6187H136.562V46.9878H192.753V19.6187Z" fill="#3F3D56"/>
<path d="M161.646 37.9948C163.117 43.4322 168.155 46.7998 168.155 46.7998C168.155 46.7998 170.809 41.3515 169.338 35.914C167.867 30.4765 162.828 27.1089 162.828 27.1089C162.828 27.1089 160.175 32.5572 161.646 37.9948Z" fill="white"/>
<path d="M163.808 36.8261C167.844 40.7553 168.337 46.7953 168.337 46.7953C168.337 46.7953 162.286 46.4649 158.25 42.5358C154.213 38.6066 153.72 32.5665 153.72 32.5665C153.72 32.5665 159.771 32.8969 163.808 36.8261Z" fill="#3AD29F"/>
<path d="M77.3207 114.773C78.7916 120.211 83.8299 123.579 83.8299 123.579C83.8299 123.579 86.4834 118.13 85.0125 112.693C83.5415 107.255 78.5032 103.888 78.5032 103.888C78.5032 103.888 75.8497 109.336 77.3207 114.773Z" fill="white"/>
<path d="M79.482 113.605C83.5183 117.534 84.0113 123.574 84.0113 123.574C84.0113 123.574 77.9601 123.244 73.9238 119.315C69.8875 115.386 69.3945 109.345 69.3945 109.345C69.3945 109.345 75.4457 109.676 79.482 113.605Z" fill="#3AD29F"/>
<path d="M90.7019 114.773C89.231 120.211 84.1926 123.579 84.1926 123.579C84.1926 123.579 81.5392 118.13 83.0101 112.693C84.4811 107.255 89.5194 103.888 89.5194 103.888C89.5194 103.888 92.1729 109.336 90.7019 114.773Z" fill="white"/>
<path d="M88.541 113.605C84.5047 117.534 84.0117 123.574 84.0117 123.574C84.0117 123.574 90.0629 123.244 94.0992 119.315C98.1355 115.386 98.6285 109.345 98.6285 109.345C98.6285 109.345 92.5773 109.676 88.541 113.605Z" fill="#3AD29F"/>
<path d="M149.156 81.5167H144.375V76.7354H149.156V81.5167ZM144.743 81.1489H148.789V77.1032H144.743V81.1489Z" fill="#3F3D56"/>
<path d="M23.608 111.085L20.3467 107.589L23.8432 104.327L27.1045 107.824L23.608 111.085ZM20.8665 107.607L23.6261 110.565L26.5847 107.806L23.8251 104.847L20.8665 107.607Z" fill="#2F2E41"/>
<path d="M26.1916 35.8547C27.5398 35.8547 28.6327 34.7618 28.6327 33.4136C28.6327 32.0654 27.5398 30.9725 26.1916 30.9725C24.8434 30.9725 23.7505 32.0654 23.7505 33.4136C23.7505 34.7618 24.8434 35.8547 26.1916 35.8547Z" fill="#3F3D56"/>
<path d="M26.1912 40.4656C24.7964 40.4656 23.433 40.052 22.2733 39.2772C21.1136 38.5023 20.2097 37.4009 19.676 36.1123C19.1422 34.8237 19.0026 33.4058 19.2747 32.0378C19.5468 30.6699 20.2184 29.4133 21.2047 28.4271C22.1909 27.4408 23.4475 26.7692 24.8154 26.4971C26.1834 26.225 27.6013 26.3646 28.8899 26.8984C30.1785 27.4321 31.2799 28.336 32.0547 29.4957C32.8296 30.6554 33.2432 32.0188 33.2432 33.4136C33.2411 35.2833 32.4975 37.0758 31.1754 38.3978C29.8534 39.7199 28.0609 40.4635 26.1912 40.4656ZM26.1912 26.904C24.9037 26.904 23.6452 27.2858 22.5747 28.0011C21.5042 28.7164 20.6698 29.733 20.1771 30.9225C19.6844 32.112 19.5555 33.4208 19.8067 34.6836C20.0579 35.9463 20.6779 37.1062 21.5882 38.0166C22.4986 38.9269 23.6585 39.5469 24.9212 39.7981C26.184 40.0493 27.4928 39.9204 28.6823 39.4277C29.8718 38.935 30.8884 38.1006 31.6037 37.0301C32.319 35.9596 32.7008 34.7011 32.7008 33.4136C32.6988 31.6878 32.0123 30.0332 30.792 28.8128C29.5716 27.5925 27.917 26.906 26.1912 26.904Z" fill="#2F2E41"/>
<path d="M251.851 149.516H0V150H251.851V149.516Z" fill="#3F3D56"/>
<path d="M122.998 50.1364H66.8066V77.5055H122.998V50.1364Z" fill="#3F3D56"/>
<path d="M95.1807 59.5203H94.6963V77.543H95.1807V59.5203Z" fill="white"/>
<path d="M94.9383 62.3111C96.3459 62.3111 97.487 61.17 97.487 59.7624C97.487 58.3548 96.3459 57.2137 94.9383 57.2137C93.5307 57.2137 92.3896 58.3548 92.3896 59.7624C92.3896 61.17 93.5307 62.3111 94.9383 62.3111Z" fill="#3AD29F"/>
<path d="M94.9379 70.628C94.9379 70.628 94.5738 62.797 87.1099 63.7073L94.9379 70.628Z" fill="white"/>
<path d="M172.942 124.589L141.773 134.34L102.999 109.873L102.997 109.871L102.87 109.793L102.849 109.779L102.541 109.586L98.8491 107.263C98.8561 107.2 98.8648 107.139 98.877 107.08C98.9336 106.793 99.0645 106.526 99.2566 106.305C99.3235 106.226 99.3969 106.153 99.476 106.086H99.4777C99.5126 106.056 99.5491 106.026 99.5874 105.999C99.6257 105.969 99.6658 105.941 99.7076 105.915C100.422 105.436 101.498 105.232 102.619 105.171C105.041 105.056 107.45 105.579 109.607 106.686C113.966 108.891 123.334 113.229 124.795 110.571C126.71 107.089 104.944 68.2572 104.944 68.2572C103.152 63.6514 104.463 62.1469 105.285 61.6733C105.309 61.6594 105.334 61.6454 105.356 61.6332C105.444 61.5884 105.534 61.55 105.626 61.5183C105.675 61.5007 105.724 61.4862 105.774 61.4748C105.788 61.4711 105.801 61.4682 105.814 61.4661L108.702 65.3039L108.745 65.3614L108.9 65.5686L108.947 65.6313L126.449 88.8919C153.265 74.4389 162.494 113.096 162.494 113.096L172.942 124.589Z" fill="#FBBEBE"/>
<path d="M108.947 65.6313C108.883 65.7624 108.783 65.8723 108.659 65.948C108.535 66.0237 108.391 66.0618 108.245 66.0579C108.149 66.0576 108.053 66.0447 107.96 66.0196C107.312 65.8454 106.561 65.135 106.001 64.1651C105.454 63.2178 105.229 62.2653 105.356 61.6332C105.443 61.5884 105.534 61.55 105.626 61.5183C105.675 61.5007 105.724 61.4862 105.774 61.4747C105.55 61.9153 105.684 62.9165 106.304 63.9909C106.81 64.8703 107.496 65.5355 108.048 65.6818C108.116 65.7099 108.189 65.7221 108.262 65.7174C108.335 65.7127 108.405 65.6912 108.469 65.6546C108.532 65.618 108.586 65.5674 108.626 65.5065C108.667 65.4457 108.692 65.3763 108.701 65.3039L108.745 65.3614L108.9 65.5686L108.947 65.6313Z" fill="#3F3D56"/>
<path d="M102.87 109.793L102.849 109.779L102.54 109.586C102.542 109.089 102.166 108.276 101.335 107.459C100.634 106.775 99.8188 106.326 99.2563 106.305C99.3233 106.226 99.3966 106.152 99.4757 106.085H99.4775C99.5123 106.056 99.5489 106.026 99.5872 105.998C100.345 106.222 101.032 106.64 101.579 107.21C102.492 108.107 102.993 109.129 102.87 109.793Z" fill="#3F3D56"/>
<path d="M229.547 109.765C236.39 130.358 233.986 149.694 233.986 149.694C233.986 149.694 220.489 135.641 213.646 115.048C206.804 94.4544 209.207 75.1184 209.207 75.1184C209.207 75.1184 222.704 89.1711 229.547 109.765Z" fill="#3AD29F"/>
<path d="M238.426 109.765C231.584 130.358 233.987 149.694 233.987 149.694C233.987 149.694 247.484 135.641 254.327 115.048C261.169 94.4544 258.766 75.1184 258.766 75.1184C258.766 75.1184 245.269 89.1711 238.426 109.765Z" fill="#3AD29F"/>
<path d="M241.183 109.987C241.641 131.683 233.637 149.448 233.637 149.448C233.637 149.448 224.89 132.037 224.431 110.341C223.972 88.6458 231.976 70.8809 231.976 70.8809C231.976 70.8809 240.724 88.2916 241.183 109.987Z" fill="#3F3D56"/>
<path d="M232.807 92.9371C233.98 92.9371 234.93 91.9862 234.93 90.8132C234.93 89.6402 233.98 88.6893 232.807 88.6893C231.634 88.6893 230.683 89.6402 230.683 90.8132C230.683 91.9862 231.634 92.9371 232.807 92.9371Z" fill="#3AD29F"/>
<path d="M228.677 108.984C229.328 108.984 229.856 108.456 229.856 107.804C229.856 107.153 229.328 106.625 228.677 106.625C228.025 106.625 227.497 107.153 227.497 107.804C227.497 108.456 228.025 108.984 228.677 108.984Z" fill="#3AD29F"/>
<path d="M214.281 97.3028C214.933 97.3028 215.461 96.7745 215.461 96.1228C215.461 95.4712 214.933 94.9429 214.281 94.9429C213.629 94.9429 213.101 95.4712 213.101 96.1228C213.101 96.7745 213.629 97.3028 214.281 97.3028Z" fill="#3F3D56"/>
<path d="M255.933 85.8573C256.585 85.8573 257.113 85.3291 257.113 84.6774C257.113 84.0257 256.585 83.4974 255.933 83.4974C255.282 83.4974 254.753 84.0257 254.753 84.6774C254.753 85.3291 255.282 85.8573 255.933 85.8573Z" fill="#3F3D56"/>
<path d="M220.416 108.394C221.068 108.394 221.596 107.866 221.596 107.214C221.596 106.563 221.068 106.034 220.416 106.034C219.765 106.034 219.236 106.563 219.236 107.214C219.236 107.866 219.765 108.394 220.416 108.394Z" fill="#3F3D56"/>
<path d="M245.196 101.551C245.848 101.551 246.376 101.022 246.376 100.371C246.376 99.719 245.848 99.1907 245.196 99.1907C244.544 99.1907 244.016 99.719 244.016 100.371C244.016 101.022 244.544 101.551 245.196 101.551Z" fill="#3F3D56"/>
<path d="M221.125 125.74C221.776 125.74 222.305 125.211 222.305 124.56C222.305 123.908 221.776 123.38 221.125 123.38C220.473 123.38 219.945 123.908 219.945 124.56C219.945 125.211 220.473 125.74 221.125 125.74Z" fill="#3F3D56"/>
<path d="M246.375 119.014C247.027 119.014 247.555 118.486 247.555 117.834C247.555 117.182 247.027 116.654 246.375 116.654C245.724 116.654 245.195 117.182 245.195 117.834C245.195 118.486 245.724 119.014 246.375 119.014Z" fill="#3F3D56"/>
<path d="M234.93 120.194C235.582 120.194 236.11 119.665 236.11 119.014C236.11 118.362 235.582 117.834 234.93 117.834C234.279 117.834 233.75 118.362 233.75 119.014C233.75 119.665 234.279 120.194 234.93 120.194Z" fill="#3AD29F"/>
</svg>
