<svg width="273" height="150" viewBox="0 0 273 150" fill="none" xmlns="http://www.w3.org/2000/svg">
<g clip-path="url(#clip0_1246_1134)">
<path d="M231.522 99.5829H159.129C154.198 99.5829 149.468 101.542 145.981 105.029C142.494 108.516 140.535 113.245 140.535 118.177V149.165H146.368V132.066C146.368 127.134 148.327 122.405 151.814 118.918C155.301 115.431 160.031 113.472 164.962 113.472H225.689C230.621 113.472 235.35 115.431 238.837 118.918C242.324 122.405 244.283 127.134 244.283 132.066V149.165H250.116V118.177C250.116 113.245 248.157 108.516 244.67 105.029C241.183 101.542 236.454 99.5829 231.522 99.5829Z" fill="#F2F2F2"/>
<path d="M211.159 104.583C221.629 104.583 230.117 103.37 230.117 101.874C230.117 100.379 221.629 99.1661 211.159 99.1661C200.688 99.1661 192.201 100.379 192.201 101.874C192.201 103.37 200.688 104.583 211.159 104.583Z" fill="#E6E6E6"/>
<path d="M225.49 102.554H200.239C194.005 96.5795 189.548 90.8221 193.117 86.043C193.117 84.6693 193.662 83.3518 194.634 82.3804C195.605 81.409 196.923 80.8633 198.296 80.8633H227.432C228.806 80.8633 230.124 81.409 231.095 82.3804C232.066 83.3518 232.612 84.6693 232.612 86.043C233.971 91.4885 231.544 96.9928 225.49 102.554Z" fill="#F2F2F2"/>
<path d="M220.955 74.3426C220.716 74.3536 220.478 74.2907 220.276 74.1624C220.073 74.0341 219.915 73.8466 219.822 73.6253C219.73 73.4041 219.708 73.1597 219.759 72.9253C219.81 72.691 219.931 72.478 220.108 72.3152L220.188 71.9965C220.177 71.971 220.166 71.9455 220.156 71.92C219.914 71.3499 219.51 70.8638 218.993 70.5228C218.477 70.1819 217.871 70.0012 217.251 70.0035C216.632 70.0058 216.028 70.191 215.514 70.5358C214.999 70.8806 214.599 71.3697 214.361 71.9416C213.414 74.2241 212.207 76.5104 211.91 78.9238C211.779 79.9905 211.834 81.0719 212.073 82.1198C209.847 77.2643 208.692 71.987 208.684 66.6456C208.684 65.3053 208.758 63.966 208.907 62.6339C209.03 61.5419 209.201 60.4577 209.42 59.3813C210.613 53.5406 213.174 48.0662 216.894 43.4077C218.694 42.4254 220.15 40.9149 221.065 39.0798C221.397 38.4201 221.631 37.7158 221.761 36.989C221.558 37.0156 220.995 33.9228 221.149 33.733C220.866 33.3036 220.359 33.0901 220.05 32.671C218.513 30.5868 216.395 30.9507 215.289 33.783C212.927 34.975 212.904 36.952 214.354 38.8534C215.276 40.063 215.402 41.6998 216.211 42.9949C216.128 43.1014 216.042 43.2046 215.958 43.3112C214.437 45.2676 213.111 47.3684 211.999 49.5835C212.27 47.1019 211.947 44.5917 211.058 42.2591C210.157 40.0853 208.468 38.2546 206.98 36.3753C205.194 34.118 201.53 35.1031 201.216 37.9646C201.213 37.9923 201.21 38.02 201.207 38.0477C201.428 38.1723 201.644 38.3046 201.855 38.4445C202.121 38.6221 202.327 38.8759 202.446 39.1725C202.566 39.4692 202.592 39.7949 202.523 40.107C202.454 40.4191 202.292 40.7031 202.059 40.9217C201.826 41.1402 201.532 41.2832 201.216 41.3319L201.183 41.337C201.262 42.1332 201.401 42.9222 201.6 43.6974C199.691 51.0764 203.811 53.764 209.693 53.8848C209.823 53.9513 209.949 54.0179 210.079 54.0812C208.962 57.2463 208.262 60.5433 207.995 63.8891C207.844 65.863 207.853 67.8459 208.022 69.8184L208.012 69.7485C207.585 67.5551 206.415 65.576 204.699 64.1454C202.15 62.0513 198.548 61.2802 195.798 59.5969C195.506 59.4093 195.166 59.3091 194.819 59.3083C194.471 59.3074 194.131 59.406 193.838 59.5922C193.545 59.7784 193.311 60.0446 193.164 60.3593C193.017 60.6741 192.963 61.0243 193.009 61.3686C193.013 61.3931 193.016 61.4176 193.02 61.4421C193.43 61.6091 193.829 61.8014 194.215 62.018C194.436 62.1427 194.653 62.275 194.864 62.4149C195.13 62.5925 195.336 62.8462 195.455 63.1429C195.574 63.4395 195.601 63.7653 195.532 64.0774C195.463 64.3895 195.301 64.6734 195.068 64.892C194.834 65.1106 194.54 65.2536 194.224 65.3023L194.192 65.3073C194.169 65.3106 194.149 65.314 194.126 65.3173C194.826 66.9898 195.809 68.5293 197.032 69.8683C198.225 76.3099 203.349 76.9211 208.831 75.0452H208.834C209.435 77.6587 210.307 80.2025 211.434 82.6358H220.722C220.756 82.5326 220.786 82.4261 220.816 82.3229C219.956 82.3769 219.093 82.3255 218.246 82.1698C218.935 81.3241 219.624 80.4718 220.313 79.6262C220.328 79.6104 220.343 79.5937 220.356 79.5763C220.706 79.1435 221.059 78.714 221.408 78.2812L221.409 78.2807C221.427 76.9541 221.275 75.6305 220.956 74.3428L220.955 74.3426Z" fill="#F2F2F2"/>
<path d="M147.354 102.488L150.686 99.3168L140.042 84.9587L135.125 89.6382L147.354 102.488Z" fill="#FFB6B6"/>
<path d="M144.096 101.24L149.115 95.8574L151.286 98.1376L159.672 96.8163C160.086 96.751 160.51 96.8198 160.882 97.0127C161.255 97.2055 161.556 97.5123 161.741 97.8883C161.927 98.2643 161.987 98.6898 161.914 99.1026C161.841 99.5154 161.637 99.894 161.333 100.183L154.997 106.214L151.758 104.998L153.479 107.659L151.09 109.933L144.096 101.24Z" fill="#2F2E41"/>
<path d="M146.785 91.6663L142.202 97.9162C138.323 95.8496 125.942 87.6492 116.459 83.3535C110.33 80.5702 105.601 78.4535 105.601 78.4535C105.601 78.4535 104.963 79.3577 103.947 80.7785C100.226 85.9867 91.4385 98.1073 90.601 97.6573C89.5385 97.0865 88.3344 98.1073 88.4844 100.199C88.5927 101.724 86.0136 102.836 84.6053 103.332C84.0761 103.516 83.7136 103.616 83.7136 103.616C83.472 103.77 83.2303 103.924 82.9928 104.07C75.2805 108.782 66.2431 107.453 60.0349 102.403C57.8112 100.609 55.9976 98.3598 54.7162 95.8062C53.4347 93.2526 52.7152 90.4542 52.6059 87.5992L52.0518 74.6828L70.8014 73.8495L74.1388 80.1868L80.0595 75.3619L93.0218 64.7997L97.755 60.9414C97.755 60.9414 97.63 60.9247 97.78 60.3581C98.373 60.0367 98.9935 59.769 99.6341 59.5581C99.7425 59.5206 99.8508 59.4873 99.9591 59.4581C106.063 57.6581 110.692 62.3414 110.692 62.3414C110.692 62.3414 139.006 81.4874 140.118 81.6665C141.231 81.8499 141.871 83.6368 142.004 84.0618C142.133 84.4618 143.906 86.7206 144.702 86.6664C147.185 86.5039 146.785 91.6663 146.785 91.6663Z" fill="#2F2E41"/>
<path d="M90.5765 52.9844C90.054 53.1579 89.5762 53.4445 89.1772 53.8238C88.7782 54.2032 88.4678 54.6659 88.2683 55.179L71.0753 55.0844L61.9296 42.434L55.1313 45.4438L66.1959 65.4913L90.4169 60.0879L90.4026 60.0373C90.9636 60.2553 91.5688 60.3351 92.1671 60.2699C92.7654 60.2047 93.3393 59.9965 93.8401 59.6628C94.341 59.3291 94.7542 58.8797 95.0448 58.3526C95.3353 57.8256 95.4948 57.2363 95.5096 56.6346C95.5244 56.033 95.3942 55.4366 95.13 54.8958C94.8657 54.3551 94.4752 53.8859 93.9914 53.5279C93.5076 53.1699 92.9447 52.9336 92.3504 52.839C91.756 52.7444 91.1476 52.7943 90.5765 52.9844L90.5765 52.9844Z" fill="#FFB6B6"/>
<path d="M58.7171 33.8137L58.3601 33.866C56.4953 34.1372 54.8107 35.1277 53.6671 36.6255C52.5235 38.1232 52.0118 40.0092 52.2415 41.8796C52.5177 44.0917 52.6784 46.0714 52.4366 46.4652C51.8414 47.4344 51.6139 48.2465 52.7815 48.3679C53.9492 48.4893 51.5155 47.7745 55.2357 48.3965C58.9558 49.0185 58.2978 47.0418 61.3283 46.9113C64.3588 46.7808 66.4036 47.5628 67.3582 45.855C68.3127 44.1473 70.9745 44.0773 69.5126 42.3994C68.0506 40.7214 67.6547 42.1706 66.4704 38.6126C66.4585 38.5771 66.4467 38.5416 66.4348 38.5064C65.9001 36.9452 64.8352 35.6207 63.4252 34.7634C62.0151 33.906 60.3492 33.57 58.7171 33.8137Z" fill="#3AD29F"/>
<path d="M48.6794 29.397C48.2373 29.8279 47.7668 30.2288 47.2711 30.5969C47.1253 30.7094 46.9794 30.8136 46.8336 30.9094C42.6045 33.7719 38.4296 32.5469 35.1755 29.5595C30.1464 24.9346 27.3215 16.0889 29.9298 11.5973C35.7713 4.47247 43.3545 6.00158 47.9628 10.8432C52.4377 15.5389 54.1127 23.3554 48.6794 29.397Z" fill="#F2F2F2"/>
<path d="M67.0389 35.3294C66.6805 35.1003 66.3222 34.8794 65.9556 34.667C65.7931 34.4461 65.6264 34.2295 65.4556 34.017L67.0389 35.3294Z" fill="#F2F2F2"/>
<path d="M56.8223 16.4298C62.3711 20.6508 68.5505 24.0102 69.7153 28.6555C69.7153 28.6555 69.0176 21.3568 72.2723 22.7402C77.7409 25.0647 75.8906 12.4233 74.357 10.3562C71.8012 6.91096 63.1826 4.95337 63.1826 4.95337L57.0686 8.30966L56.8223 16.4298Z" fill="#2F2E41"/>
<path d="M82.3749 148.265C82.4884 148.595 82.7038 148.881 82.99 149.082C83.2763 149.282 83.6187 149.387 83.9682 149.381L90.7948 149.205C91.1468 149.198 91.4872 149.078 91.765 148.861C92.0428 148.645 92.2431 148.345 92.3361 148.005L93.3021 137.675C93.6448 137.83 94.018 137.907 94.3942 137.899C94.7212 137.892 95.0435 137.819 95.3427 137.687C95.6418 137.554 95.9119 137.364 96.1374 137.127C96.363 136.89 96.5397 136.611 96.6574 136.306C96.775 136.001 96.8313 135.675 96.8231 135.348C96.8149 135.021 96.7423 134.699 96.6095 134.4C96.4767 134.101 96.2862 133.831 96.049 133.606C95.8119 133.38 95.5326 133.204 95.2272 133.087C94.9218 132.969 94.5962 132.913 94.2692 132.922C94.1188 132.921 93.9689 132.937 93.8218 132.968C93.6619 132.795 93.4675 132.658 93.2512 132.564C93.0349 132.471 92.8014 132.424 92.5658 132.426L82.0649 132.698C81.9777 132.701 81.8911 132.711 81.8058 132.73C81.5755 132.773 81.3571 132.864 81.1653 132.999C80.9734 133.133 80.8126 133.307 80.6936 133.509C80.5746 133.711 80.5003 133.936 80.4755 134.169C80.4507 134.402 80.4762 134.637 80.5501 134.859L82.3749 148.265ZM93.5002 136.974L94.1876 134.512C94.2658 134.228 94.2676 133.928 94.1929 133.642C94.2262 133.642 94.2556 133.627 94.289 133.626C94.7603 133.617 95.2161 133.794 95.5567 134.12C95.8972 134.446 96.0947 134.894 96.1057 135.365C96.1167 135.836 95.9405 136.293 95.6156 136.634C95.2907 136.976 94.8436 137.175 94.3724 137.187C94.0677 137.196 93.7661 137.123 93.5002 136.974Z" fill="#CCCCCC"/>
<path d="M81.8062 132.73C82.0299 134.009 84.5452 134.908 87.5696 134.752C90.3508 134.624 92.6248 133.647 93.0414 132.49C92.8872 132.444 92.7269 132.423 92.5661 132.426L82.0652 132.698C81.9781 132.701 81.8914 132.712 81.8062 132.73Z" fill="white"/>
<path d="M66.4845 21.552C71.7771 21.552 76.0677 17.2615 76.0677 11.9689C76.0677 6.67626 71.7771 2.38574 66.4845 2.38574C61.1919 2.38574 56.9014 6.67626 56.9014 11.9689C56.9014 17.2615 61.1919 21.552 66.4845 21.552Z" fill="#FFB6B6"/>
<path d="M63.0333 8.30217L62.6646 9.92187L69.111 11.3894C69.1167 11.0618 69.1901 10.739 69.3265 10.4411C69.4629 10.1432 69.6594 9.87675 69.9037 9.65842C69.7646 10.2935 69.7805 10.9528 69.9499 11.5804C73.4265 13.5313 73.2268 14.2224 76.0366 13.7249C76.4172 13.8116 76.8167 13.7435 77.1472 13.5356C77.4776 13.3277 77.712 12.997 77.7986 12.6164C78.9292 7.65042 79.3006 2.57487 74.359 1.34224C73.1579 1.04191 71.9089 0.984416 70.6852 1.17312C69.4615 1.36183 68.2879 1.79294 67.233 2.44118C66.1781 3.08942 65.2633 3.94176 64.5421 4.94819C63.821 5.95462 63.308 7.09489 63.0333 8.30217Z" fill="#2F2E41"/>
<path d="M111.969 68.5541C111.946 68.5268 111.92 68.5026 111.891 68.4821C111.819 68.399 111.732 68.3307 111.634 68.2812L110.933 67.9058L106.277 62.7372C106.008 62.5968 105.694 62.5668 105.403 62.6535L105.391 62.6572L103.397 63.2739L101.682 63.8062L99.2857 64.5489L82.9668 69.602L72.24 72.9231C71.95 73.0149 71.7076 73.2168 71.565 73.4855C71.4225 73.7542 71.3911 74.0681 71.4777 74.3597C71.5281 74.5203 71.6116 74.6685 71.7226 74.7949L72.064 75.1748L72.7799 75.9724L74.4387 79.41L74.8989 79.9237C75.0456 80.0872 75.2358 80.2055 75.4473 80.2648C75.6587 80.3242 75.8827 80.3221 76.093 80.2587L111.432 70.432C111.615 70.3725 111.781 70.2688 111.916 70.1301C112.05 69.9913 112.148 69.8217 112.201 69.6362C112.254 69.4506 112.26 69.2549 112.22 69.0662C112.18 68.8775 112.093 68.7017 111.969 68.5541L111.969 68.5541Z" fill="#CCCCCC"/>
<path d="M109.871 17.4279L109.187 17.5388C108.999 17.5699 108.832 17.6739 108.72 17.8282L108.419 18.2498L105.699 25.0504C105.588 25.2059 105.544 25.399 105.576 25.5873L105.894 27.5249L104.69 62.1099C104.72 62.2887 104.816 62.4498 104.959 62.5615L110.24 69.6248L110.363 69.7228L110.629 69.931C110.765 70.0363 110.934 70.0901 111.107 70.0829L111.555 70.0615C111.657 70.0565 111.757 70.03 111.848 69.9837C111.939 69.9373 112.019 69.8722 112.083 69.7926C112.147 69.7138 112.194 69.622 112.22 69.5236C112.245 69.4251 112.25 69.3222 112.232 69.2219L110.7 18.0196C110.67 17.8315 110.565 17.6635 110.41 17.5524C110.255 17.4413 110.063 17.3963 109.875 17.4273L109.871 17.4279Z" fill="#CCCCCC"/>
<path d="M108.725 20.115L106.316 27.454L105.384 56.7672L109.134 60.1004L108.725 20.115Z" fill="#3AD29F"/>
<path d="M60.8789 23.9222L57.7998 22.4791L54.7682 27.7543C54.7682 27.7543 46.6259 39.3735 46.5078 47.7559C46.3897 56.1382 47.8347 58.6309 47.8347 58.6309C47.8347 58.6309 44.3241 61.2556 46.0794 62.8599C47.8347 64.4642 51.7207 65.1564 48.7361 65.8519C45.7514 66.5475 46.5078 73.5887 49.841 74.8387C53.1743 76.0886 71.0757 76.0777 71.0757 76.0777C70.9148 75.5318 70.9029 74.9528 71.0414 74.4007C71.1798 73.8487 71.4636 73.3438 71.8631 72.9384C73.2508 71.5474 74.5008 72.5455 73.2509 70.3798C72.0009 68.2141 69.9176 69.4641 71.5842 66.5475C73.2509 63.6309 73.2502 62.7593 73.2502 62.7593C73.2502 62.7593 72.3567 42.1941 67.2392 35.1794L67.3482 34.9864C67.5182 32.7038 66.9905 30.4235 65.8352 28.4476C64.6799 26.4717 62.9515 24.8936 60.8789 23.9222Z" fill="#3AD29F"/>
<path d="M64.6102 14.7643C64.9258 13.381 65.5445 12.0849 66.4217 10.9697C67.2989 9.85442 68.4127 8.94775 69.6828 8.3151C70.9528 7.68245 72.3475 7.33959 73.7661 7.31124C75.1847 7.2829 76.5919 7.56977 77.8862 8.15117C77.4379 6.82797 76.5305 5.70905 75.3285 4.99704L68.0723 1.84675C64.4931 1.03194 58.8273 -1.28071 56.2421 0.93396C53.8603 2.96845 55.0195 6.95093 52.8262 9.1813C50.4225 11.6256 50.2183 14.5158 50.9 16.1781C51.6886 18.1013 53.2663 20.7251 55.2352 21.293C55.3376 20.6161 55.6753 19.9971 56.1888 19.5444C56.0468 20.1894 56.0345 20.8562 56.1524 21.5061L68.0723 31.0128C66.959 30.0445 66.0106 27.5496 65.3573 24.7396C64.9707 23.0762 62.6635 22.4924 64.5346 19.6694C66.4057 16.8464 64.3561 15.8804 64.6102 14.7643Z" fill="#2F2E41"/>
<path d="M60.1558 110.595H64.3224V143.511C64.3224 144.063 64.1029 144.593 63.7122 144.984C63.3215 145.374 62.7916 145.594 62.2391 145.594C61.6865 145.594 61.1566 145.374 60.7659 144.984C60.3752 144.593 60.1558 144.063 60.1558 143.511V110.595Z" fill="#F2F2F2"/>
<path d="M48.0637 149.02L53.8938 141.288C55.7437 138.834 57.5174 136.283 59.4717 133.917C60.1662 133.076 60.9727 132.207 61.9998 131.952C62.4044 131.849 62.8306 131.867 63.225 132.004C63.6909 132.167 64.1207 132.419 64.4906 132.746C65.3497 133.541 66.0704 134.474 66.6233 135.507C67.3511 136.771 68.0239 138.068 68.6505 139.385C70.0701 142.385 71.2246 145.504 72.101 148.706C72.5285 150.255 74.941 149.597 74.5116 148.041C73.644 144.91 72.527 141.852 71.1712 138.899C70.5111 137.457 69.7927 136.044 69.0163 134.659C68.3695 133.429 67.5543 132.296 66.5944 131.292C65.6236 130.266 64.3299 129.604 62.9298 129.418C61.4276 129.254 60.0343 129.931 58.919 130.882C57.7985 131.837 56.9567 133.101 56.0768 134.268L52.9756 138.381L45.9051 147.758C45.4984 148.298 45.819 149.156 46.3535 149.469C46.6416 149.628 46.98 149.671 47.2984 149.587C47.6169 149.503 47.891 149.301 48.0637 149.02H48.0637Z" fill="#F2F2F2"/>
<path d="M88.0716 65.5955C87.5211 65.595 86.9772 65.7161 86.4788 65.95C85.9804 66.1839 85.5398 66.5249 85.1884 66.9487L68.9054 61.4289L64.2231 46.5375L56.8223 47.2461L60.9888 69.7621L85.6767 72.285L85.6791 72.2325C86.1425 72.6165 86.6916 72.8834 87.2798 73.0105C87.8681 73.1376 88.4784 73.1212 89.059 72.9628C89.6396 72.8044 90.1736 72.5085 90.6157 72.1002C91.0579 71.6919 91.3953 71.1831 91.5994 70.6169C91.8035 70.0507 91.8683 69.4437 91.7884 68.8472C91.7084 68.2507 91.4861 67.6822 91.1401 67.1897C90.7941 66.6972 90.3347 66.2953 89.8006 66.0178C89.2665 65.7403 88.6735 65.5955 88.0717 65.5955L88.0716 65.5955Z" fill="#FFB6B6"/>
<path d="M63.8979 37.3439L63.5427 37.2808C61.6876 36.9491 59.7765 37.3569 58.2184 38.4168C56.6603 39.4767 55.5791 41.1046 55.2063 42.9518C54.7697 45.1379 54.297 47.067 53.9432 47.3643C53.0724 48.0959 52.5999 48.7945 53.6694 49.2785C54.739 49.7625 52.6557 48.3157 55.989 50.0807C59.3222 51.8458 59.3222 49.7625 62.2388 50.5958C65.1555 51.4291 66.8486 52.8169 68.2937 51.498C69.7387 50.1792 72.2864 50.9534 71.4292 48.8996C70.572 46.8459 69.7387 48.0959 69.7387 44.3459C69.7387 44.3084 69.7386 44.2711 69.7385 44.2339C69.7243 42.5837 69.1321 40.9907 68.0651 39.7319C66.998 38.4731 65.5235 37.6281 63.8979 37.3439Z" fill="#3AD29F"/>
<path d="M178.659 108.333C187.749 108.333 195.117 107.12 195.117 105.624C195.117 104.129 187.749 102.916 178.659 102.916C169.57 102.916 162.201 104.129 162.201 105.624C162.201 107.12 169.57 108.333 178.659 108.333Z" fill="#E6E6E6"/>
<path d="M195.203 89.9828C195.209 93.9596 193.771 97.8034 191.157 100.8C190.505 101.551 189.785 102.241 189.006 102.86C187.825 103.809 186.517 104.589 185.12 105.178H172.32C170.923 104.589 169.615 103.809 168.434 102.86C167.655 102.241 166.935 101.551 166.283 100.8C165.518 99.9187 164.847 98.9596 164.282 97.9384C163.105 95.8019 162.417 93.4308 162.267 90.996C162.117 88.5613 162.51 86.1237 163.416 83.859C164.322 81.5943 165.72 79.5591 167.508 77.9C169.297 76.2409 171.431 74.9993 173.757 74.2649C176.083 73.5305 178.543 73.3214 180.96 73.6529C183.376 73.9844 185.689 74.8481 187.732 76.1817C189.774 77.5153 191.495 79.2856 192.771 81.3649C194.046 83.4442 194.844 85.7807 195.108 88.2058C195.172 88.796 195.204 89.3892 195.203 89.9828Z" fill="#3F3D56"/>
<path d="M191.157 100.8C190.505 101.552 189.785 102.241 189.006 102.86H168.434C167.655 102.241 166.935 101.552 166.283 100.8H191.157Z" fill="#3AD29F"/>
<path d="M195.108 88.2058C191.664 93.5498 185.326 97.6963 177.61 98.9557C173.151 99.714 168.574 99.3647 164.282 97.9384C163.105 95.8019 162.417 93.4307 162.267 90.996C162.117 88.5613 162.51 86.1237 163.416 83.859C164.322 81.5943 165.72 79.559 167.508 77.9C169.297 76.2409 171.431 74.9993 173.757 74.2649C176.083 73.5305 178.543 73.3214 180.96 73.6529C183.376 73.9844 185.689 74.8481 187.732 76.1817C189.774 77.5153 191.495 79.2856 192.771 81.3649C194.046 83.4442 194.844 85.7807 195.108 88.2058Z" fill="#3AD29F"/>
<path d="M183.627 73.3892L182.885 73.175C182.338 73.0172 181.767 73.3324 181.609 73.879C181.452 74.4257 181.767 74.9967 182.313 75.1545L183.056 75.3688C183.602 75.5265 184.173 75.2113 184.331 74.6647C184.489 74.118 184.174 73.547 183.627 73.3892Z" fill="#3AD29F"/>
<path d="M187.232 74.6778L186.489 74.4635C185.943 74.3058 185.372 74.621 185.214 75.1676L185.214 75.1676C185.056 75.7143 185.371 76.2853 185.918 76.4431L186.66 76.6574C187.207 76.8151 187.778 76.4999 187.936 75.9533L187.936 75.9533C188.093 75.4066 187.778 74.8356 187.232 74.6778Z" fill="#3AD29F"/>
<path d="M141.441 113.379L145.093 110.584L136.05 95.1669L130.66 99.2922L141.441 113.379Z" fill="#FFB6B6"/>
<path d="M138.335 111.79L143.903 106.976L145.816 109.476L154.296 109.062C154.714 109.041 155.129 109.155 155.478 109.387C155.828 109.619 156.094 109.956 156.238 110.35C156.382 110.743 156.397 111.173 156.28 111.575C156.162 111.978 155.92 112.333 155.587 112.587L148.64 117.903L145.55 116.347L146.975 119.178L144.356 121.182L138.335 111.79Z" fill="#2F2E41"/>
<path d="M142.035 102.559L136.808 108.281C133.173 105.811 121.744 96.3296 112.776 91.0414C106.981 87.6168 102.506 85.0051 102.506 85.0051C102.506 85.0051 101.775 85.8356 100.612 87.1392C96.3541 91.9183 86.3174 103.026 85.533 102.489C84.5379 101.808 83.2312 102.693 83.1559 104.789C83.1001 106.317 80.4165 107.146 78.9631 107.488C78.4174 107.614 78.0462 107.674 78.0462 107.674C77.7895 107.802 77.5326 107.929 77.2809 108.048C69.1076 111.906 60.2649 109.616 54.6343 103.929C52.6158 101.907 51.054 99.4759 50.0538 96.7996C49.0536 94.1233 48.6384 91.2638 48.836 88.4136L49.6705 75.5123L68.4013 76.6949L71.0397 83.3537L77.4438 79.1917L91.4642 70.0807L96.584 66.7524C96.584 66.7524 96.4615 66.7224 96.6714 66.1752C97.2954 65.9193 97.9411 65.7197 98.6007 65.5787C98.7124 65.553 98.8237 65.5315 98.9345 65.5141C105.196 64.3793 109.296 69.532 109.296 69.532C109.296 69.532 135.393 91.6046 136.48 91.902C137.566 92.2036 138.011 94.0489 138.098 94.4857C138.183 94.8972 139.703 97.3332 140.5 97.3647C142.987 97.4695 142.035 102.559 142.035 102.559Z" fill="#2F2E41"/>
<path d="M57.6666 117.22C53.7458 108.829 25.1548 116.941 23.2756 98.604C22.759 93.2666 26.7589 88.6542 30.5588 84.8709C57.5874 66.1796 4.8135 52.3674 25.3173 33.9136C28.4311 32.1 31.7376 30.6396 35.1754 29.5595C39.9211 28.1637 43.4627 28.422 46.146 29.8803C46.5367 30.0936 46.9125 30.333 47.271 30.597C59.0291 39.2843 51.9167 74.3836 64.2581 85.2834C68.958 88.9916 89.7451 96.1748 93.0826 101.775C93.1707 101.926 93.25 102.081 93.32 102.241C94.4622 104.439 68.7007 110.426 70.8205 115.574C73.7371 122.658 57.4147 132.984 57.6666 117.22Z" fill="#F2F2F2"/>
<path d="M2.19562e-06 149.504C-0.000191996 149.569 0.0124971 149.634 0.0373473 149.694C0.0621976 149.754 0.0987097 149.809 0.144793 149.855C0.190875 149.901 0.245625 149.938 0.305871 149.963C0.366118 149.987 0.430683 150 0.495852 150H272.278C272.409 150 272.536 149.948 272.629 149.855C272.722 149.762 272.774 149.636 272.774 149.504C272.774 149.373 272.722 149.247 272.629 149.154C272.536 149.061 272.409 149.008 272.278 149.008H0.495827C0.43066 149.008 0.366089 149.021 0.305846 149.046C0.245603 149.071 0.190872 149.107 0.144793 149.153C0.0987128 149.199 0.0621968 149.254 0.0373473 149.314C0.0124979 149.374 -0.000189768 149.439 2.19562e-06 149.504Z" fill="#CCCCCC"/>
<path d="M80.4039 73.2648C80.4039 75.9111 82.6384 80.9918 69.5708 80.9918C56.5032 80.9918 33.082 75.9111 33.082 73.2648C33.082 70.6185 43.6754 68.4733 56.743 68.4733C69.8106 68.4733 80.4039 70.6185 80.4039 73.2648Z" fill="#F2F2F2"/>
</g>
<defs>
<clipPath id="clip0_1246_1134">
<rect width="272.774" height="150" fill="white"/>
</clipPath>
</defs>
</svg>
